<?xml version="1.0" standalone="no"?>
<!DOCTYPE svg PUBLIC "-//W3C//DTD SVG 20010904//EN"
 "http://www.w3.org/TR/2001/REC-SVG-20010904/DTD/svg10.dtd">
<svg version="1.0" xmlns="http://www.w3.org/2000/svg"
 width="404.000000pt" height="125.000000pt" viewBox="0 0 404.000000 125.000000"
 preserveAspectRatio="xMidYMid meet">

<g transform="translate(0.000000,125.000000) scale(0.100000,-0.100000)"
fill="#000000" stroke="none">
<polygon
   fill="#fecc00"
   points="0,5000 0,0 10000,0 10000,5000 "
   id="polygon2" />
<path fill="#d50029" d="M651 1008 l-60 -83 357 -5 c196 -3 358 -7 360 -8 8 -7 -3 -30 -40
-83 -35 -50 -40 -62 -28 -69 8 -5 81 -10 161 -10 138 0 147 1 166 23 46 50 93
131 93 159 0 61 -58 128 -128 148 -22 6 -190 10 -429 10 l-392 0 -60 -82z"/>
<path fill="#d50029" d="M1802 925 c-67 -90 -122 -167 -122 -170 0 -3 203 -4 451 -3 l452 3
123 168 124 167 -188 -1 -187 0 -68 -95 -68 -94 -81 0 -80 0 17 28 c10 15 30
43 45 62 14 19 36 50 49 68 l22 32 -184 0 -184 0 -121 -165z"/>
<path fill="#d50029" d="M2826 923 l-124 -168 186 -3 c103 -1 192 0 198 2 10 4 154 192 232
304 l23 32 -195 0 -196 0 -124 -167z"/>
<path fill="#d50029" d="M662 698 l-128 -173 340 -3 c397 -3 421 1 530 76 38 26 80 62 94 80
l25 32 -231 0 c-127 0 -233 4 -236 8 -3 5 15 37 39 70 25 34 45 66 45 72 0 6
-63 10 -175 10 l-175 0 -128 -172z"/>
<path fill="#d50029" d="M0 690 c0 -20 7 -20 288 -20 276 0 288 1 300 20 12 20 10 20 -288 20
-293 0 -300 0 -300 -20z"/>
<path fill="#d50029" d="M1576 620 c-36 -50 -66 -93 -66 -95 0 -3 82 -5 183 -5 l183 0 60 82
c32 45 63 88 67 95 6 11 -27 13 -176 13 l-184 0 -67 -90z"/>
<path fill="#d50029" d="M2111 618 l-68 -93 175 -3 c97 -1 181 -1 188 2 6 2 41 45 77 95 l67
91 -185 0 -185 0 -69 -92z"/>
<path fill="#d50029" d="M2640 668 c-16 -22 -30 -49 -30 -58 0 -29 39 -69 78 -80 22 -6 169
-10 362 -10 l325 1 37 52 c20 29 51 71 68 95 l32 42 -421 0 -421 0 -30 -42z"/>
<path fill="#d50029" d="M3565 690 c-18 -20 -17 -20 228 -20 240 0 247 1 247 20 0 19 -7 20
-228 20 -216 0 -230 -1 -247 -20z"/>
<path fill="#d50029" d="M2 613 c3 -17 25 -18 260 -21 249 -2 257 -2 268 18 11 20 8 20 -260
20 -253 0 -271 -1 -268 -17z"/>
<path fill="#d50029" d="M3512 618 c-7 -7 -12 -16 -12 -20 0 -5 120 -7 267 -6 246 3 268 4
271 21 3 16 -14 17 -255 17 -188 0 -262 -3 -271 -12z"/>
<path fill="#d50029" d="M0 540 c0 -19 7 -20 233 -20 221 0 233 1 245 20 12 20 10 20 -233 20
-238 0 -245 -1 -245 -20z"/>
<path fill="#d50029" d="M3455 540 c-18 -20 -17 -20 283 -20 295 0 302 0 302 20 0 20 -7 20
-283 20 -271 0 -285 -1 -302 -20z"/>
<path fill="#d50029" d="M1384 258 c-128 -169 -122 -158 -82 -158 27 1 39 8 66 45 27 37 38
45 65 45 82 1 155 36 195 94 33 49 35 63 13 85 -17 17 -33 21 -90 21 l-69 0
-98 -132z m196 58 c0 -24 -49 -63 -87 -69 -20 -4 -39 -4 -41 -2 -3 3 8 23 23
45 24 35 33 40 66 40 26 0 39 -4 39 -14z"/>
<path fill="#d50029" d="M1755 344 c-58 -53 -255 -246 -255 -249 0 -2 14 -2 31 0 18 1 43 15
63 34 27 27 39 31 84 31 l53 0 -16 -30 -16 -30 36 0 c19 0 35 1 35 3 0 2 29
67 64 145 l65 142 -47 0 c-42 0 -53 -5 -97 -46z m28 -77 c-25 -52 -29 -57 -60
-57 -18 0 -33 2 -33 4 0 6 114 115 117 112 1 -1 -9 -28 -24 -59z"/>
<path fill="#d50029" d="M1917 246 c-59 -79 -107 -145 -107 -148 0 -2 15 -2 33 0 25 3 40 15
71 57 55 77 66 78 66 5 l0 -60 40 0 39 0 3 72 3 71 104 71 103 71 -36 3 c-30
3 -49 -6 -123 -57 -90 -64 -134 -81 -97 -38 11 12 32 39 48 60 l27 37 -33 0
c-31 0 -40 -9 -141 -144z"/>
<path fill="#d50029" d="M2208 246 c-60 -79 -108 -145 -108 -147 0 -2 44 -3 97 -2 92 1 98 3
116 27 l19 26 -61 0 c-34 0 -61 2 -61 5 0 3 10 19 22 35 20 27 27 30 78 30 42
0 61 5 73 18 26 28 21 32 -33 32 -55 0 -58 4 -31 38 16 19 29 22 83 22 60 0
66 2 86 30 l23 30 -98 0 -98 -1 -107 -143z"/>
<path fill="#d50029" d="M2522 361 l-22 -30 41 -3 41 -3 -86 -113 c-47 -62 -86 -114 -86 -115
0 -1 14 -2 32 -2 28 0 39 11 120 118 l89 117 42 0 c36 0 47 5 65 30 l23 30
-119 0 -118 0 -22 -29z"/>
</g>
</svg>
