<svg height="169" width="904" xmlns="http://www.w3.org/2000/svg"><path d="m0 0 1 1z" fill="#fff"/><path d="m1 0 1 1z" fill="#a0a2a4"/><path d="m2 0v1h66l-21-1z" fill="#5e6269"/><path d="m68 0 1 1z" fill="#a0a2a4"/><path d="m69 0v1c8.4845 9.0549.9205 22.0679-6 29l-36 36c-5.3456 5.3456-13.5612 11.1779-16.9722 18-2.88207 5.7641-1.0278 15.6744-1.0278 22v53h21v-40c0-5.329-1.4122-13.12 1.0278-18 3.0502-6.1005 10.1994-11.2272 14.9722-16 14.2261-14.2261 34.666-29.0024 45.3966-46 6.8174-10.799-1.8593-27.252 4.6034-39z" fill="#fff"/><path d="m96 0 1 1z" fill="#d3d3d5"/><path d="m97 0v1h66l-21-1z" fill="#5e6269"/><path d="m163 0 1 1z" fill="#a0a2a4"/><path d="m164 0 1 1z" fill="#d3d3d5"/><path d="m165 0c4.831 11.401 2 27.7419 2 40v85c0 13.315 3.24 31.635-2 44h739v-147h-1c-9.219 19.722-22.486 38.1633-33.424 57-6.407 11.0334-13.575 19.8556-13.576 33v30c-.009 4.439.097 9.112-5.019 10.566-16.897 4.802-12.981-18.938-12.981-28.566 0-7.37 1.601-16.944-.699-24-5.352-16.4201-19.236-33.1463-28.1-48-4.589-7.6883-17.165-22.0002-17.384-30.9807-.179-7.3423 12.529-5.4433 16.078-2.5857 8.99 7.2396 14.818 23.61 20.526 33.5664 5.875 10.2478 12.581 20.2951 17.579 31h2c10.573-16.0294 19.772-33.3117 29.281-50 6.414-11.2567 12.484-21.0318 26.719-15v-18z" fill="#fff"/><path d="m0 1 1 1z" fill="#5e6269"/><path d="m0 168c16.0102 2.972 33.7387 1 50 1 5.2205 0 14.1085 1.653 18.6821-1.318 3.2597-2.117 2.3177-7.363 2.3179-10.682.0005-7.651-2.2437-19.434 2.2284-26 10.9529-16.082 28.9526-30.223 42.8576-43.831 5.621-5.5015 14.808-11.8634 17.976-19.1698 2.217-5.1138.938-12.5267.938-17.9992v-40h23v53c0 5.986 1.989 16.3926-1.028 21.7145-3.23 5.6987-10.347 10.6603-14.972 15.2855l-33 33c-9.0512 9.051-18.47 16.793-14.6821 30.956 1.6836 6.295 9.6741 5.044 14.6821 5.044h42c4.488 0 11.991 1.21 14.821-3.279 5.144-8.159 1.179-29.157 1.179-38.721v-87c0-9.8085 3.314-26.8854-.742-35.85185-2.21-4.884112-10.932-3.14815-15.258-3.14815h-41c-3.88 0-11.3861-1.40715-14.3966 1.60339-7.4149 7.41481 2.4918 26.36981-3.2068 35.39661-10.9617 17.3636-31.8633 32.4667-46.3966 47-4.7728 4.7728-11.922 9.8995-14.9722 16-2.44 4.88-1.0278 12.671-1.0278 18v40h-22v-53c0-6.3476-1.90406-16.4441 1.6034-22 10.4995-16.6316 30.4778-31.0812 44.3966-45 10.5115-10.5115 19.5875-17.8846 16.8519-33.94136-.964-5.657593-8.5925-4.05864-12.8519-4.05864h-42c-3.7343 0-13.3916-1.756805-15.396605 2.3179-1.762105 3.58106-.603395 9.7782-.603395 13.6821v33z" fill="#021931"/><path d="m70 1 1 1z" fill="#d3d3d5"/><path d="m95 1 1 1z" fill="#5e6269"/><path d="m165 1 1 1zm-71 1 1 1z" fill="#a0a2a4"/><path d="m166 2 1 1z" fill="#d3d3d5"/><path d="m71 3v17h1z" fill="#a0a2a4"/><path d="m93 3v34h1z" fill="#d3d3d5"/><path d="m166 3 1 1z" fill="#5e6269"/><path d="m8 10v60h1v-41z" fill="#d3d3d5"/><path d="m9 10v59c6.4748-4.561 17.5999-13.4146 20.3966-21 3.7907-10.2812.6034-27.0456.6034-38zm31 0v28c9.1052-6.4138 20.9586-16.2858 21-28z" fill="#fff"/><path d="m61 10 1 1zm42 0-1.028 31-16.972 18-45 46c10.0044-7.0473 18.3533-17.3533 27-26 18.1561-18.1561 48.529-39.141 36-69z" fill="#a0a2a4"/><path d="m104 10-1.028 31-14.972 16-33 33-13.9722 15-1.0278 17v37h22l1.0278-31 14.9722-16 32.001-32.0147 13.971-14.9853 1.028-17v-38z" fill="#fff"/><path d="m125 10 1 1z" fill="#5e6269"/><path d="m135 10v58h1v-39z" fill="#d3d3d5"/><path d="m136 10v39l-1.028 18-13.972 15-30.169 30.424-17.8927 19-2.9383 37.576h26c-8.0904-14.707.809-23.809 11-34l33-33c5.06-5.0595 12.741-10.5381 15.972-17 2.882-5.7641 1.028-15.6744 1.028-22v-53z" fill="#fff"/><path d="m157 10v76h1v-52z" fill="#5e6269"/><path d="m61 11v6h1z" fill="#d3d3d5"/><path d="m125 11v53h1v-36zm77 5v1h10z" fill="#a0a2a4"/><path d="m212 16 1 1zm77 0 1 1z" fill="#d3d3d5"/><path d="m290 16v1h10z" fill="#a0a2a4"/><path d="m300 16 1 1zm80 0 1 1z" fill="#d3d3d5"/><path d="m381 16v1h14z" fill="#a0a2a4"/><path d="m395 16 1 1zm80 0 1 1z" fill="#d3d3d5"/><path d="m476 16v1h10z" fill="#a0a2a4"/><path d="m486 16 1 1zm42 0 1 1z" fill="#d3d3d5"/><path d="m529 16v1h9z" fill="#a0a2a4"/><path d="m538 16 1 1zm101 0 1 1z" fill="#d3d3d5"/><path d="m640 16v1h9z" fill="#a0a2a4"/><path d="m649 16 1 1zm42 0 1 1z" fill="#d3d3d5"/><path d="m692 16v1h80l-25-1z" fill="#a0a2a4"/><path d="m772 16 1 1zm21 0 1 1z" fill="#d3d3d5"/><path d="m794 16v1h10z" fill="#a0a2a4"/><path d="m804.667 16.3333.666.3334zm84.333-.3333 1 1z" fill="#d3d3d5"/><path d="m890 16v1h11z" fill="#a0a2a4"/><path d="m901 16 1 1z" fill="#d3d3d5"/><path d="m61 17 1 1z" fill="#5e6269"/><path d="m200 17-1 2z" fill="#a0a2a4"/><path d="m215 92h72c0 17.616-2.676 37.611.148 54.981.985 6.059 12.785 7.513 15.249 1.871 3.213-7.36.603-20.854.603-28.852v-70c0-7.4667 3.169-24.3928-1.028-30.6821-2.525-3.7837-12.501-3.448-14.369.8302-3.518 8.0595-.603 23.079-.603 31.8519v24h-52c-4.59 0-14.888 1.9054-18.397-1.6034-2.734-2.7339-1.603-8.8935-1.603-12.3966v-30c0-3.618 1.082-9.5201-1.028-12.6821-1.815-2.721-6.093-2.5083-8.967-2.2593-10.136.8782-6.005 25.3785-6.005 32.9414v70c0 7.998-2.61 21.492.603 28.852 2.012 4.607 12.782 4.607 14.794 0 3.213-7.36.603-20.854.603-28.852z" fill="#021931"/><path d="m213 17 1 1z" fill="#5e6269"/><path d="m288 17 1 1z" fill="#a0a2a4"/><path d="m301 17 1 1z" fill="#5e6269"/><path d="m377 17-2 3z" fill="#d3d3d5"/><path d="m378 17 1 1z" fill="#5e6269"/><path d="m379.185 17.7423c-7.486 3.2679-10.62 19.2421-13.235 26.2577-9.493 25.4631-19.855 50.5995-29.526 76-2.796 7.346-5.806 14.601-8.47 22-.9 2.498-3 6.825-.347 8.972 7.061 5.715 14.662-2.221 17.109-7.972 2.38-5.592 4.162-17.622 9.559-20.972 3.705-2.3 10.533-1.028 14.725-1.028h37c4.335 0 11.817-1.416 15.606 1.028 9.431 6.083 7.239 38.698 26.075 29.369 3.553-1.76 1.531-6.7.454-9.397-3.455-8.652-6.725-17.387-10.274-26-8.834-21.4389-16.809-43.3234-25.053-65-3.572-9.3922-6.342-21.5915-12.022-29.8912-3.616-5.2844-16.015-5.805-21.601-3.3665z" fill="#021931"/><path d="m397 17 1 1z" fill="#5e6269"/><path d="m398 17 1 1z" fill="#d3d3d5"/><path d="m474 17-1 2z" fill="#a0a2a4"/><path d="m475.318 18.0278c-5.584 3.7261-2.318 24.771-2.318 30.9722v83c0 7.478-.518 28.448 13.682 18.972 5.584-3.726 2.318-24.771 2.318-30.972v-83c0-7.4785.518-28.44777-13.682-18.9722z" fill="#021931"/><path d="m487 17 1 1z" fill="#5e6269"/><path d="m526 17-1 2z" fill="#d3d3d5"/><path d="m542 137v-90c0-6.0109 3.175-26.3964-3.279-29.3966-17.021-7.91297-13.721 16.313-13.721 25.3966v72c0 9.907-2.413 23.441.434 32.941 1.827 6.099 11.675 4.059 16.566 4.059h51c4.227 0 17.188 2.17 19.397-2.318 1.576-3.203 1.506-11.161-2.545-12.364-6.348-1.885-15.246-.318-21.852-.318z" fill="#021931"/><path d="m540 17 1 1zm97 0 1 1z" fill="#d3d3d5"/><path d="m638 17 1 1z" fill="#5e6269"/><path d="m639.318 17.7423c-5.474 2.7908-2.318 25.5957-2.318 31.2577v81c0 8.718-2.711 28.377 12.772 21.397 6.575-2.965 3.228-25.18 3.228-31.397v-82c0-8.5446 1.416-27.9552-13.682-20.2577z" fill="#021931"/><path d="m651 17 1 1zm39 0-1 2z" fill="#a0a2a4"/><path d="m705 80v-35c0-3.5202-1.118-9.6794 2.318-11.9722 3.534-2.3586 10.617-1.0278 14.682-1.0278h35c4.312 0 14.197 1.8414 16.972-2.3179 2.394-3.5867 1.532-11.1113-3.031-12.3642-16.466-4.5219-39.823-.3179-56.941-.3179-6.186 0-16.131-1.8945-21.852.6034-5.993 2.6165-3.148 19.907-3.148 25.3966v80c0 5.823-3.093 25.672 3.148 28.397 3.395 1.482 10.559 1.324 12.249-2.545 4.433-10.155.603-29.757.603-40.852 0-3.52-1.118-9.6794 2.318-11.9722 3.534-2.3586 10.617-1.0278 14.682-1.0278h33c3.904 0 10.101 1.1587 13.682-.6034 5.161-2.5394 2.592-13.3879-2.701-14.2485-19.256-3.1305-41.45-.1481-60.981-.1481z" fill="#021931"/><path d="m773 17 1 1zm19 0-1 2z" fill="#5e6269"/><path d="m846 84c-7.491-20.4592-22.481-41.4757-34.004-59.9961-3.345-5.3759-12.257-10.5868-18.635-5.9761-3.175 2.2955-.168 6.5578 1.243 8.9722 4.501 7.7016 9.258 15.2497 13.677 23 9.126 16.0076 25.355 34.2473 30.22 52 3.976 14.507-3.154 31.483.817 45.941 1.321 4.812 8.561 4.874 12.573 3.741 4.973-1.404 4.107-7.644 4.109-11.682.005-11.808-1.143-24.261.108-36 .784-7.359 7.128-14.7053 10.742-21 9.261-16.1287 18.979-32.0488 28.55-48 2.352-3.9213 6.975-9.2118 7.177-13.9414.247-5.762-11.174-4.8334-14.484-3.0308-5.897 3.2122-9.769 13.2874-12.862 18.9722-7.577 13.9238-16.757 37.2343-29.231 47z" fill="#021931"/><path d="m806 17 1 1z" fill="#5e6269"/><path d="m807 17 1 1zm80 0 1 1zm15 0 1 1z" fill="#a0a2a4"/><path d="m60 18 1 1zm154 0 1 1zm73 0 1 1zm15 0 1 1z" fill="#5e6269"/><path d="m399 18 1 1z" fill="#d3d3d5"/><path d="m488 18 1 1z" fill="#5e6269"/><path d="m541 18 1 1zm111 0 1 1z" fill="#d3d3d5"/><path d="m774 18 1 1z" fill="#5e6269"/><path d="m808 18 1 1z" fill="#a0a2a4"/><path d="m886 18 1 1z" fill="#5e6269"/><path d="m903 18 1 1z" fill="#a0a2a4"/><path d="m59 19 1 1z" fill="#5e6269"/><path d="m215 19 1 1z" fill="#a0a2a4"/><path d="m286 19 1 1zm17 0 1 1z" fill="#d3d3d5"/><path d="m376 19 1 1z" fill="#5e6269"/><path d="m400 19 1 1zm72 0v131h1v-91c0-11.4201 3.408-29.4962-1-40m17 0 1 1z" fill="#d3d3d5"/><path d="m525 19 1 1zm16.333.6667.334.6666z" fill="#5e6269"/><path d="m636 19 1 1z" fill="#a0a2a4"/><path d="m652 19 1 1z" fill="#5e6269"/><path d="m688 19v131h1v-91c0-11.42 3.408-29.4963-1-40m87 0 1 1zm34 0 1 1z" fill="#d3d3d5"/><path d="m885 19 1 1z" fill="#a0a2a4"/><path d="m903.333 19.6667.334.6666zm-845.333.3333 1 1z" fill="#5e6269"/><path d="m71 20 1 1zm127 0v130h1v-91c0-11.1581 3.308-28.7343-1-39z" fill="#d3d3d5"/><path d="m215 20v55h1v-37z" fill="#5e6269"/><path d="m286 20v55h1v-37zm17 0v129h1v-90c0-11.1581 3.308-28.7343-1-39z" fill="#a0a2a4"/><path d="m375 20 1 1zm25 0 1 1z" fill="#5e6269"/><path d="m489 20v129h1v-90c0-11.1581 3.308-28.7343-1-39z" fill="#a0a2a4"/><path d="m636 20v130h1v-91c0-11.158 3.308-28.7345-1-39z" fill="#5e6269"/><path d="m775 20 1 1z" fill="#a0a2a4"/><path d="m810 20 1 1zm74 0 1 1z" fill="#d3d3d5"/><path d="m57 21 1 1zm13 0 1 1z" fill="#5e6269"/><path d="m374 21 1 1zm27 0 1 1z" fill="#a0a2a4"/><path d="m653 21v127h1v-89c0-10.896 3.208-27.9727-1-38z" fill="#d3d3d5"/><path d="m775 21v7h1z" fill="#5e6269"/><path d="m791 21 1 1z" fill="#a0a2a4"/><path d="m810 21 1 1zm74 0 1 1z" fill="#5e6269"/><path d="m903 21 1 1z" fill="#a0a2a4"/><path d="m56 22 1 1z" fill="#5e6269"/><path d="m70 22 1 1z" fill="#d3d3d5"/><path d="m374 22 1 1z" fill="#5e6269"/><path d="m791 22 1 1zm20 0 1 1z" fill="#d3d3d5"/><path d="m883 22 1 1z" fill="#a0a2a4"/><path d="m55 23 1 1z" fill="#5e6269"/><path d="m69 23 1 1zm304 0 1 1zm29 0 1 1z" fill="#d3d3d5"/><path d="m792 23 1 1z" fill="#a0a2a4"/><path d="m811 23 1 1z" fill="#5e6269"/><path d="m902 23 1 1z" fill="#d3d3d5"/><path d="m54 24 1 1z" fill="#5e6269"/><path d="m68 24 1 1z" fill="#d3d3d5"/><path d="m373 24 1 1zm29 0 1 1z" fill="#5e6269"/><path d="m812 24 1 1z" fill="#a0a2a4"/><path d="m882 24 1 1zm19 0 1 1zm-848 1 1 1z" fill="#5e6269"/><path d="m67 25 1 1zm336 0 1 1zm390 0 1 1zm88 0 1 1zm20 0 1 1z" fill="#d3d3d5"/><path d="m52 26 1 1z" fill="#5e6269"/><path d="m66 26 1 1z" fill="#d3d3d5"/><path d="m372 26 1 1zm31 0 1 1z" fill="#a0a2a4"/><path d="m794 26 1 1z" fill="#5e6269"/><path d="m813 26 1 1z" fill="#a0a2a4"/><path d="m881 26 1 1z" fill="#5e6269"/><path d="m900 26 1 1z" fill="#a0a2a4"/><path d="m51 27 1 1z" fill="#5e6269"/><path d="m65 27 1 1z" fill="#d3d3d5"/><path d="m372 27 1 1z" fill="#5e6269"/><path d="m794 27 1 1zm20 0 1 1z" fill="#d3d3d5"/><path d="m880 27 1 1z" fill="#a0a2a4"/><path d="m50 28 1 1z" fill="#5e6269"/><path d="m64 28 1 1zm307 0 1 1zm33 0 1 1z" fill="#d3d3d5"/><path d="m775 28 1 1zm20 0 1 1z" fill="#a0a2a4"/><path d="m814 28 1 1z" fill="#5e6269"/><path d="m899 28 1 1z" fill="#d3d3d5"/><path d="m49 29 1 1z" fill="#5e6269"/><path d="m63 29 1 1z" fill="#d3d3d5"/><path d="m371 29 1 1zm33 0 1 1z" fill="#5e6269"/><path d="m775 29 1 1zm40 0 1 1z" fill="#d3d3d5"/><path d="m879 29 1 1z" fill="#a0a2a4"/><path d="m898 29 1 1zm-850 1 1 1z" fill="#5e6269"/><path d="m62 30 1 1zm343 0 1 1z" fill="#d3d3d5"/><path d="m774 30-1 2z" fill="#5e6269"/><path d="m796 30 1 1z" fill="#a0a2a4"/><path d="m878 30 1 1zm20 0 1 1z" fill="#d3d3d5"/><path d="m47 31 1 1z" fill="#5e6269"/><path d="m61 31 1 1z" fill="#d3d3d5"/><path d="m370 31 1 1zm35 0 1 1z" fill="#a0a2a4"/><path d="m774 31 1 1z" fill="#d3d3d5"/><path d="m797 31 1 1z" fill="#5e6269"/><path d="m816 31 1 1z" fill="#a0a2a4"/><path d="m878 31 1 1z" fill="#5e6269"/><path d="m897 31 1 1z" fill="#a0a2a4"/><path d="m46 32 1 1z" fill="#5e6269"/><path d="m60 32 1 1z" fill="#d3d3d5"/><path d="m405 32 1 1zm301 0v1h66l-21-1z" fill="#5e6269"/><path d="m772 32 1 1z" fill="#a0a2a4"/><path d="m797 32 1 1zm80 0 1 1z" fill="#d3d3d5"/><path d="m45 33 1 1z" fill="#5e6269"/><path d="m59 33 1 1zm310 0 1 1z" fill="#d3d3d5"/><path d="m387.667 33.3333.666.3334z" fill="#5e6269"/><path d="m406 33 1 1z" fill="#d3d3d5"/><path d="m705 33v46h1c0-13.0033 4.01-34.0613-1-46m93 0 1 1z" fill="#a0a2a4"/><path d="m817 33 1 1z" fill="#5e6269"/><path d="m896 33 1 1z" fill="#a0a2a4"/><path d="m44 34 1 1z" fill="#5e6269"/><path d="m58 34 1 1z" fill="#d3d3d5"/><path d="m369 34 1 1z" fill="#a0a2a4"/><path d="m387 34 1 1z" fill="#d3d3d5"/><path d="m388 34c-11.568 21.722-20.111 47.679-28 71h55l-12.576-35z" fill="#fff"/><path d="m406 34 1 1z" fill="#a0a2a4"/><path d="m818 34 1 1z" fill="#d3d3d5"/><path d="m876 34 1 1z" fill="#a0a2a4"/><path d="m895 34 1 1zm-852 1 1 1z" fill="#5e6269"/><path d="m57 35 1 1z" fill="#d3d3d5"/><path d="m386 35 1 1zm3 0 1 1z" fill="#5e6269"/><path d="m799 35 1 1z" fill="#a0a2a4"/><path d="m818 35 1 1z" fill="#5e6269"/><path d="m895 35 1 1z" fill="#d3d3d5"/><path d="m42 36 1 1z" fill="#5e6269"/><path d="m56 36 1 1zm312 0 1 1zm18 0 1 1zm3 0 1 1z" fill="#d3d3d5"/><path d="m407 36 1 1z" fill="#a0a2a4"/><path d="m800 36 1 1z" fill="#5e6269"/><path d="m819 36 1 1z" fill="#d3d3d5"/><path d="m875 36 1 1zm19 0 1 1z" fill="#a0a2a4"/><path d="m41 37 1 1z" fill="#5e6269"/><path d="m55 37 1 1z" fill="#d3d3d5"/><path d="m93 37 1 1z" fill="#a0a2a4"/><path d="m368 37 1 1zm22 0 1 1zm17 0 1 1z" fill="#5e6269"/><path d="m800 37 1 1z" fill="#d3d3d5"/><path d="m819 37 1 1z" fill="#5e6269"/><path d="m874 37 1 1z" fill="#d3d3d5"/><path d="m40 38 1 1z" fill="#5e6269"/><path d="m54 38 1 1z" fill="#d3d3d5"/><path d="m92 38 1 1z" fill="#a0a2a4"/><path d="m367 38 1 1z" fill="#d3d3d5"/><path d="m385 38 1 1zm5 0 1 1z" fill="#a0a2a4"/><path d="m408 38 1 1z" fill="#d3d3d5"/><path d="m801 38 1 1z" fill="#5e6269"/><path d="m820 38 1 1z" fill="#a0a2a4"/><path d="m874 38 1 1z" fill="#5e6269"/><path d="m893 38 1 1z" fill="#a0a2a4"/><path d="m53 39 1 1z" fill="#d3d3d5"/><path d="m91 39 1 1zm276 0 1 1z" fill="#a0a2a4"/><path d="m385 39 1 1z" fill="#d3d3d5"/><path d="m408 39 1 1z" fill="#a0a2a4"/><path d="m801 39 1 1zm20 0 1 1z" fill="#d3d3d5"/><path d="m873 39 1 1z" fill="#a0a2a4"/><path d="m892 39 1 1z" fill="#5e6269"/><path d="m52 40 1 1z" fill="#d3d3d5"/><path d="m90 40 1 1z" fill="#a0a2a4"/><path d="m384 40 1 1zm7 0 1 1zm17 0 1 1z" fill="#5e6269"/><path d="m802 40 1 1z" fill="#a0a2a4"/><path d="m821 40 1 1zm52 0 1 1z" fill="#5e6269"/><path d="m892 40 1 1zm-841 1 1 1z" fill="#d3d3d5"/><path d="m89 41 1 1z" fill="#a0a2a4"/><path d="m366 41 1 1zm18 0 1 1zm7 0 1 1zm18 0 1 1z" fill="#d3d3d5"/><path d="m803 41 1 1z" fill="#5e6269"/><path d="m822 41 1 1z" fill="#d3d3d5"/><path d="m872 41 1 1z" fill="#a0a2a4"/><path d="m891 41 1 1z" fill="#5e6269"/><path d="m50 42 1 1z" fill="#d3d3d5"/><path d="m88 42 1 1z" fill="#a0a2a4"/><path d="m366 42 1 1zm26 0 1 1zm17 0 1 1z" fill="#5e6269"/><path d="m803 42 1 1z" fill="#d3d3d5"/><path d="m822 42 1 1z" fill="#5e6269"/><path d="m49 43 1 1z" fill="#d3d3d5"/><path d="m87 43 1 1z" fill="#a0a2a4"/><path d="m383 43 1 1z" fill="#5e6269"/><path d="m392 43 1 1z" fill="#a0a2a4"/><path d="m804 43 1 1z" fill="#5e6269"/><path d="m823 43 1 1z" fill="#a0a2a4"/><path d="m871 43 1 1z" fill="#5e6269"/><path d="m890 43 1 1z" fill="#a0a2a4"/><path d="m48 44 1 1z" fill="#d3d3d5"/><path d="m86 44 1 1zm279 0 1 1z" fill="#a0a2a4"/><path d="m383 44 1 1zm9 0 1 1z" fill="#d3d3d5"/><path d="m410 44 1 1z" fill="#a0a2a4"/><path d="m870 44 1 1z" fill="#d3d3d5"/><path d="m889 44 1 1z" fill="#5e6269"/><path d="m47 45 1 1z" fill="#d3d3d5"/><path d="m85 45 1 1z" fill="#a0a2a4"/><path d="m365 45 1 1zm28 0 1 1z" fill="#5e6269"/><path d="m805 45 1 1zm19 0 1 1z" fill="#a0a2a4"/><path d="m870 45 1 1z" fill="#5e6269"/><path d="m889 45 1 1zm-843 1 1 1z" fill="#d3d3d5"/><path d="m84 46 1 1z" fill="#a0a2a4"/><path d="m364 46 1 1z" fill="#d3d3d5"/><path d="m382 46 1 1zm11 0 1 1z" fill="#a0a2a4"/><path d="m411 46 1 1z" fill="#d3d3d5"/><path d="m806 46 1 1z" fill="#5e6269"/><path d="m825 46 1 1z" fill="#d3d3d5"/><path d="m869 46 1 1z" fill="#a0a2a4"/><path d="m888 46 1 1z" fill="#5e6269"/><path d="m45 47 1 1z" fill="#d3d3d5"/><path d="m83 47 1 1z" fill="#a0a2a4"/><path d="m364 47 1 1zm47 0 1 1z" fill="#5e6269"/><path d="m806 47 1 1z" fill="#d3d3d5"/><path d="m825 47 1 1z" fill="#5e6269"/><path d="m44 48 1 1z" fill="#d3d3d5"/><path d="m82 48 1 1z" fill="#a0a2a4"/><path d="m381 48 1 1z" fill="#5e6269"/><path d="m394 48 1 1z" fill="#a0a2a4"/><path d="m807 48 1 1z" fill="#5e6269"/><path d="m826 48 1 1z" fill="#d3d3d5"/><path d="m868 48 1 1zm19 0 1 1z" fill="#a0a2a4"/><path d="m29 49 1 1z" fill="#5e6269"/><path d="m43 49 1 1z" fill="#d3d3d5"/><path d="m81 49 1 1zm282 0 1 1z" fill="#a0a2a4"/><path d="m381 49 1 1zm13 0 1 1zm18 0 1 1zm395 0 1 1zm60 0 1 1z" fill="#d3d3d5"/><path d="m886 49 1 1zm-858 1 1 1z" fill="#5e6269"/><path d="m42 50 1 1z" fill="#d3d3d5"/><path d="m80 50 1 1z" fill="#a0a2a4"/><path d="m363 50 1 1zm17 0 1 1zm15 0 1 1zm17 0 1 1z" fill="#5e6269"/><path d="m808 50 1 1zm19 0 1 1z" fill="#a0a2a4"/><path d="m867 50 1 1z" fill="#5e6269"/><path d="m886 50 1 1z" fill="#d3d3d5"/><path d="m27 51 1 1z" fill="#5e6269"/><path d="m41 51 1 1z" fill="#d3d3d5"/><path d="m79 51 1 1z" fill="#a0a2a4"/><path d="m362 51 1 1z" fill="#d3d3d5"/><path d="m380 51 1 1zm15 0 1 1z" fill="#a0a2a4"/><path d="m413 51 1 1zm453 0 1 1z" fill="#d3d3d5"/><path d="m885 51 1 1zm-859 1 1 1z" fill="#5e6269"/><path d="m40 52 1 1z" fill="#d3d3d5"/><path d="m78 52 1 1zm284 0 1 1z" fill="#a0a2a4"/><path d="m395 52 1 1z" fill="#d3d3d5"/><path d="m413 52 1 1z" fill="#a0a2a4"/><path d="m809 52 1 1z" fill="#d3d3d5"/><path d="m828 52 1 1z" fill="#a0a2a4"/><path d="m885 52 1 1z" fill="#d3d3d5"/><path d="m25 53 1 1z" fill="#5e6269"/><path d="m39 53 1 1z" fill="#d3d3d5"/><path d="m77 53 1 1z" fill="#a0a2a4"/><path d="m362 53 1 1zm17 0 1 1zm17 0 1 1zm414 0 1 1z" fill="#5e6269"/><path d="m829 53 1 1z" fill="#d3d3d5"/><path d="m865 53 1 1zm19 0 1 1z" fill="#a0a2a4"/><path d="m24 54 1 1z" fill="#5e6269"/><path d="m38 54 1 1z" fill="#d3d3d5"/><path d="m76 54 1 1z" fill="#a0a2a4"/><path d="m361 54 1 1zm18 0 1 1zm17 0 1 1zm18 0 1 1zm396 0 1 1z" fill="#d3d3d5"/><path d="m829 54 1 1z" fill="#5e6269"/><path d="m864 54 1 1z" fill="#d3d3d5"/><path d="m23 55 1 1z" fill="#5e6269"/><path d="m37 55 1 1z" fill="#d3d3d5"/><path d="m75 55 1 1z" fill="#a0a2a4"/><path d="m361 55 1 1zm53 0 1 1z" fill="#5e6269"/><path d="m811 55 1 1zm19 0 1 1z" fill="#a0a2a4"/><path d="m864 55 1 1z" fill="#5e6269"/><path d="m883 55 1 1z" fill="#d3d3d5"/><path d="m22 56 1 1z" fill="#5e6269"/><path d="m36 56 1 1z" fill="#d3d3d5"/><path d="m74 56 1 1z" fill="#a0a2a4"/><path d="m360 56 1 1z" fill="#d3d3d5"/><path d="m378 56 1 1zm19 0 1 1z" fill="#a0a2a4"/><path d="m415 56 1 1z" fill="#d3d3d5"/><path d="m830 56 1 1z" fill="#5e6269"/><path d="m863 56 1 1z" fill="#d3d3d5"/><path d="m882 56 1 1zm-861 1 1 1z" fill="#5e6269"/><path d="m35 57 1 1z" fill="#d3d3d5"/><path d="m73 57 1 1zm287 0 1 1z" fill="#a0a2a4"/><path d="m378 57 1 1zm19 0 1 1z" fill="#d3d3d5"/><path d="m415 57 1 1z" fill="#a0a2a4"/><path d="m812 57 1 1z" fill="#d3d3d5"/><path d="m831 57 1 1z" fill="#a0a2a4"/><path d="m863 57 1 1z" fill="#5e6269"/><path d="m882 57 1 1z" fill="#d3d3d5"/><path d="m20 58 1 1z" fill="#5e6269"/><path d="m34 58 1 1z" fill="#d3d3d5"/><path d="m72 58 1 1z" fill="#a0a2a4"/><path d="m377 58 1 1zm21 0 1 1zm17 0 1 1zm398 0 1 1z" fill="#5e6269"/><path d="m862 58 1 1zm19 0 1 1z" fill="#a0a2a4"/><path d="m19 59 1 1z" fill="#5e6269"/><path d="m33 59 1 1z" fill="#d3d3d5"/><path d="m71 59 1 1z" fill="#a0a2a4"/><path d="m359 59 1 1z" fill="#d3d3d5"/><path d="m377 59 1 1z" fill="#a0a2a4"/><path d="m398 59 1 1zm18 0 1 1zm397 0 1 1z" fill="#d3d3d5"/><path d="m832 59 1 1zm-814 1 1 1z" fill="#5e6269"/><path d="m32 60 1 1z" fill="#d3d3d5"/><path d="m70 60 1 1z" fill="#a0a2a4"/><path d="m359 60 1 1zm57 0 1 1zm398 0 1 1z" fill="#5e6269"/><path d="m833 60 1 1z" fill="#d3d3d5"/><path d="m861 60 1 1z" fill="#5e6269"/><path d="m880 60 1 1z" fill="#a0a2a4"/><path d="m17 61 1 1z" fill="#5e6269"/><path d="m31 61 1 1z" fill="#d3d3d5"/><path d="m69 61 1 1z" fill="#a0a2a4"/><path d="m358 61 1 1z" fill="#d3d3d5"/><path d="m376 61 1 1z" fill="#a0a2a4"/><path d="m399 61 1 1zm434 0 1 1z" fill="#5e6269"/><path d="m860 61 1 1z" fill="#d3d3d5"/><path d="m879 61 1 1zm-863 1 1 1z" fill="#5e6269"/><path d="m30 62 1 1z" fill="#d3d3d5"/><path d="m68 62 1 1zm290 0 1 1z" fill="#a0a2a4"/><path d="m376 62 1 1zm23 0 1 1z" fill="#d3d3d5"/><path d="m417 62 1 1zm398 0 1 1z" fill="#a0a2a4"/><path d="m834 62 1 1z" fill="#d3d3d5"/><path d="m860 62 1 1z" fill="#5e6269"/><path d="m879 62 1 1z" fill="#d3d3d5"/><path d="m15 63 1 1z" fill="#5e6269"/><path d="m29 63 1 1z" fill="#d3d3d5"/><path d="m67 63 1 1z" fill="#a0a2a4"/><path d="m358 63 1 1zm17 0 1 1zm25 0 1 1zm17 0 1 1zm399 0 1 1z" fill="#5e6269"/><path d="m859 63 1 1z" fill="#d3d3d5"/><path d="m878 63 1 1zm-864 1 1 1z" fill="#5e6269"/><path d="m28 64 1 1z" fill="#d3d3d5"/><path d="m66 64 1 1z" fill="#a0a2a4"/><path d="m125 64 1 1z" fill="#5e6269"/><path d="m357 64 1 1z" fill="#d3d3d5"/><path d="m375 64 1 1zm25 0 1 1z" fill="#a0a2a4"/><path d="m418 64 1 1zm398 0 1 1z" fill="#d3d3d5"/><path d="m835 64 1 1z" fill="#a0a2a4"/><path d="m13 65 1 1z" fill="#5e6269"/><path d="m27 65 1 1z" fill="#d3d3d5"/><path d="m65 65 1 1z" fill="#a0a2a4"/><path d="m124 65 1 1z" fill="#5e6269"/><path d="m357 65 1 1z" fill="#a0a2a4"/><path d="m375 65 1 1z" fill="#d3d3d5"/><path d="m418 65 1 1zm399 0 1 1z" fill="#5e6269"/><path d="m836 65 1 1z" fill="#d3d3d5"/><path d="m858 65 1 1zm19 0 1 1z" fill="#a0a2a4"/><path d="m12 66 1 1z" fill="#5e6269"/><path d="m26 66 1 1z" fill="#d3d3d5"/><path d="m64 66 1 1z" fill="#a0a2a4"/><path d="m123 66 1 1zm251 0 1 1zm27 0 1 1zm435 0 1 1z" fill="#5e6269"/><path d="m857 66 1 1z" fill="#d3d3d5"/><path d="m876 66 1 1zm-865 1 1 1z" fill="#5e6269"/><path d="m25 67 1 1z" fill="#d3d3d5"/><path d="m63 67 1 1z" fill="#a0a2a4"/><path d="m122 67 1 1z" fill="#5e6269"/><path d="m356 67 1 1z" fill="#a0a2a4"/><path d="m374 67 1 1zm27 0 1 1z" fill="#d3d3d5"/><path d="m419 67 1 1zm399 0 1 1z" fill="#a0a2a4"/><path d="m837 67 1 1z" fill="#d3d3d5"/><path d="m857 67 1 1z" fill="#5e6269"/><path d="m876 67 1 1z" fill="#d3d3d5"/><path d="m10 68 1 1z" fill="#5e6269"/><path d="m24 68 1 1z" fill="#d3d3d5"/><path d="m62 68 1 1z" fill="#a0a2a4"/><path d="m121 68 1 1zm13 0 1 1zm222 0 1 1zm46 0 1 1zm17 0 1 1zm400 0 1 1zm18 0 1 1z" fill="#5e6269"/><path d="m856 68 1 1z" fill="#d3d3d5"/><path d="m875 68 1 1z" fill="#a0a2a4"/><path d="m9 69 1 1z" fill="#5e6269"/><path d="m23 69 1 1z" fill="#d3d3d5"/><path d="m61 69 1 1z" fill="#a0a2a4"/><path d="m120 69 1 1zm13 0 1 1z" fill="#5e6269"/><path d="m355 69 1 1z" fill="#d3d3d5"/><path d="m373 69 1 1zm29 0 1 1z" fill="#a0a2a4"/><path d="m420 69 1 1zm399 0 1 1z" fill="#d3d3d5"/><path d="m838 69 1 1z" fill="#a0a2a4"/><path d="m856 69 1 1z" fill="#5e6269"/><path d="m875 69 1 1zm-853 1 1 1z" fill="#d3d3d5"/><path d="m60 70 1 1z" fill="#a0a2a4"/><path d="m119 70 1 1zm13 0 1 1z" fill="#5e6269"/><path d="m355 70 1 1z" fill="#a0a2a4"/><path d="m402 70 1 1z" fill="#d3d3d5"/><path d="m420 70 1 1z" fill="#a0a2a4"/><path d="m820 70 1 1z" fill="#5e6269"/><path d="m855 70 1 1zm19 0 1 1z" fill="#a0a2a4"/><path d="m21 71 1 1z" fill="#d3d3d5"/><path d="m59 71 1 1z" fill="#a0a2a4"/><path d="m118 71 1 1zm237 0 1 1zm17 0 1 1zm31 0 1 1z" fill="#5e6269"/><path d="m820 71 1 1z" fill="#d3d3d5"/><path d="m839 71 1 1z" fill="#a0a2a4"/><path d="m20 72 1 1z" fill="#d3d3d5"/><path d="m58 72 1 1z" fill="#a0a2a4"/><path d="m117 72 1 1z" fill="#5e6269"/><path d="m354 72 1 1zm18 0 1 1z" fill="#d3d3d5"/><path d="m403 72 1 1z" fill="#a0a2a4"/><path d="m421 72 1 1z" fill="#d3d3d5"/><path d="m821 72 1 1z" fill="#a0a2a4"/><path d="m840 72 1 1z" fill="#d3d3d5"/><path d="m854 72 1 1z" fill="#a0a2a4"/><path d="m873 72 1 1zm-854 1 1 1z" fill="#d3d3d5"/><path d="m57 73 1 1z" fill="#a0a2a4"/><path d="m116 73 1 1zm238 0 1 1zm17 0 1 1zm50 0 1 1zm419 0 1 1z" fill="#5e6269"/><path d="m853 73 1 1z" fill="#d3d3d5"/><path d="m872 73 1 1z" fill="#5e6269"/><path d="m18 74 1 1z" fill="#d3d3d5"/><path d="m56 74 1 1z" fill="#a0a2a4"/><path d="m115 74 1 1z" fill="#5e6269"/><path d="m371 74 1 1zm33 0 1 1z" fill="#a0a2a4"/><path d="m422 74 1 1zm400 0 1 1zm19 0 1 1z" fill="#d3d3d5"/><path d="m853 74 1 1z" fill="#5e6269"/><path d="m17 75 1 1z" fill="#d3d3d5"/><path d="m55 75 1 1z" fill="#a0a2a4"/><path d="m114 75 1 1zm13 0 1 1z" fill="#5e6269"/><path d="m216 75v1h70l-22-1z" fill="#d3d3d5"/><path d="m286 75 1 1z" fill="#5e6269"/><path d="m353 75 1 1z" fill="#a0a2a4"/><path d="m371 75 1 1zm33 0 1 1z" fill="#d3d3d5"/><path d="m422 75 1 1z" fill="#a0a2a4"/><path d="m823 75 1 1zm18 0 1 1z" fill="#5e6269"/><path d="m852 75 1 1z" fill="#d3d3d5"/><path d="m871 75 1 1z" fill="#a0a2a4"/><path d="m16 76 1 1z" fill="#d3d3d5"/><path d="m54 76 1 1z" fill="#a0a2a4"/><path d="m113 76 1 1zm13 0 1 1zm227 0 1 1zm17 0 1 1zm35 0 1 1zm17 0 1 1z" fill="#5e6269"/><path d="m823 76 1 1z" fill="#d3d3d5"/><path d="m842 76 1 1z" fill="#a0a2a4"/><path d="m852 76 1 1zm18 0 1 1z" fill="#5e6269"/><path d="m15 77 1 1z" fill="#d3d3d5"/><path d="m53 77 1 1z" fill="#a0a2a4"/><path d="m112 77 1 1zm13 0 1 1z" fill="#5e6269"/><path d="m352 77 1 1z" fill="#d3d3d5"/><path d="m370 77 1 1zm35 0 1 1z" fill="#a0a2a4"/><path d="m423 77 1 1z" fill="#d3d3d5"/><path d="m824 77 1 1zm27 0 1 1z" fill="#a0a2a4"/><path d="m870 77 1 1zm-856 1 1 1z" fill="#d3d3d5"/><path d="m52 78 1 1z" fill="#a0a2a4"/><path d="m111 78 1 1zm13 0 1 1zm228 0 1 1z" fill="#5e6269"/><path d="m423 78 1 1z" fill="#a0a2a4"/><path d="m825 78 1 1zm18 0 1 1zm26 0 1 1z" fill="#5e6269"/><path d="m13 79 1 1z" fill="#d3d3d5"/><path d="m51 79 1 1z" fill="#a0a2a4"/><path d="m110 79 1 1zm13 0 1 1z" fill="#5e6269"/><path d="m369 79 1 1z" fill="#a0a2a4"/><path d="m406 79 1 1zm299 0 1 1z" fill="#5e6269"/><path d="m706 79v1h62l-20-1zm119 0 1 1zm19 0 1 1z" fill="#d3d3d5"/><path d="m850 79 1 1z" fill="#5e6269"/><path d="m869 79 1 1zm-857 1 1 1z" fill="#d3d3d5"/><path d="m50 80 1 1z" fill="#a0a2a4"/><path d="m109 80 1 1zm13 0 1 1z" fill="#5e6269"/><path d="m351 80 1 1z" fill="#a0a2a4"/><path d="m369 80 1 1zm37 0 1 1z" fill="#d3d3d5"/><path d="m424 80 1 1z" fill="#a0a2a4"/><path d="m769 80 1 1zm57 0 1 1zm18 0 1 1z" fill="#5e6269"/><path d="m849 80 1 1z" fill="#d3d3d5"/><path d="m868 80 1 1z" fill="#a0a2a4"/><path d="m11 81 1 1z" fill="#d3d3d5"/><path d="m49 81 1 1z" fill="#a0a2a4"/><path d="m108 81 1 1zm260 0 1 1zm56 0 1 1zm346 0 1 1z" fill="#5e6269"/><path d="m826 81 1 1zm19 0 1 1z" fill="#d3d3d5"/><path d="m849 81 1 1zm18 0 1 1z" fill="#5e6269"/><path d="m10 82 1 1z" fill="#d3d3d5"/><path d="m48 82 1 1z" fill="#a0a2a4"/><path d="m107 82 1 1z" fill="#5e6269"/><path d="m350 82 1 1z" fill="#d3d3d5"/><path d="m368 82 1 1zm39 0 1 1z" fill="#a0a2a4"/><path d="m425 82 1 1zm346 0 1 1z" fill="#d3d3d5"/><path d="m827 82 1 1z" fill="#a0a2a4"/><path d="m848 82 1 1zm19 0 1 1zm-858 1 1 1z" fill="#d3d3d5"/><path d="m47 83 1 1z" fill="#a0a2a4"/><path d="m106 83 1 1z" fill="#5e6269"/><path d="m350 83 1 1z" fill="#a0a2a4"/><path d="m407 83 1 1z" fill="#d3d3d5"/><path d="m425 83 1 1zm346 0v10h1zm75 0 1 1z" fill="#a0a2a4"/><path d="m847 83 1 1z" fill="#d3d3d5"/><path d="m866 83 1 1z" fill="#5e6269"/><path d="m8 84v75h1v-52z" fill="#d3d3d5"/><path d="m46 84 1 1z" fill="#a0a2a4"/><path d="m105 84 1 1zm262 0 1 1zm41 0 1 1zm17 0 1 1z" fill="#5e6269"/><path d="m828 84 1 1z" fill="#a0a2a4"/><path d="m866 84 1 1z" fill="#d3d3d5"/><path d="m45 85 1 1z" fill="#a0a2a4"/><path d="m103 85 1 1z" fill="#d3d3d5"/><path d="m104 85 1 1zm13 0 1 1z" fill="#5e6269"/><path d="m156 85 1 1zm193 0 1 1zm18 0 1 1zm41 0 1 1zm18 0 1 1z" fill="#d3d3d5"/><path d="m829 85 1 1z" fill="#5e6269"/><path d="m865 85 1 1zm-821 1 1 1z" fill="#a0a2a4"/><path d="m103 86 1 1zm13 0 1 1z" fill="#5e6269"/><path d="m155 86 1 1z" fill="#a0a2a4"/><path d="m349 86 1 1zm77 0 1 1z" fill="#5e6269"/><path d="m829 86 1 1z" fill="#d3d3d5"/><path d="m43 87 1 1z" fill="#a0a2a4"/><path d="m102 87 1 1zm13 0 1 1zm39 0 1 1z" fill="#5e6269"/><path d="m348 87 1 1z" fill="#d3d3d5"/><path d="m366 87 1 1z" fill="#a0a2a4"/><path d="m409 87 1 1z" fill="#5e6269"/><path d="m830 87 1 1z" fill="#a0a2a4"/><path d="m864 87 1 1z" fill="#d3d3d5"/><path d="m42 88 1 1z" fill="#a0a2a4"/><path d="m101 88 1 1zm13 0 1 1zm39 0 1 1z" fill="#5e6269"/><path d="m348 88 1 1z" fill="#a0a2a4"/><path d="m366 88 1 1zm43 0 1 1z" fill="#d3d3d5"/><path d="m427 88 1 1z" fill="#a0a2a4"/><path d="m863 88 1 1z" fill="#5e6269"/><path d="m41 89 1 1z" fill="#a0a2a4"/><path d="m100 89 1 1zm13 0 1 1zm39 0 1 1zm213 0 1 1zm45 0 1 1zm17 0 1 1z" fill="#5e6269"/><path d="m831 89 1 1z" fill="#a0a2a4"/><path d="m863 89 1 1z" fill="#d3d3d5"/><path d="m40 90 1 1z" fill="#a0a2a4"/><path d="m99 90 1 1zm52 0 1 1z" fill="#5e6269"/><path d="m347 90 1 1zm18 0 1 1z" fill="#d3d3d5"/><path d="m410 90 1 1z" fill="#a0a2a4"/><path d="m428 90 1 1z" fill="#d3d3d5"/><path d="m832 90 1 1z" fill="#5e6269"/><path d="m862 90 1 1zm-823 1 1 1z" fill="#a0a2a4"/><path d="m98 91 1 1zm52 0 1 1zm197 0 1 1zm81 0 1 1z" fill="#5e6269"/><path d="m832 91 1 1z" fill="#d3d3d5"/><path d="m38 92 1 1z" fill="#a0a2a4"/><path d="m97 92 1 1zm52 0 1 1zm66 0v57h1v-39z" fill="#5e6269"/><path d="m286 92v57h1v-39zm78 0 1 1z" fill="#a0a2a4"/><path d="m411 92 1 1zm422 0 1 1z" fill="#5e6269"/><path d="m861 92 1 1zm-824 1 1 1z" fill="#a0a2a4"/><path d="m96 93 1 1zm52 0 1 1z" fill="#5e6269"/><path d="m346 93 1 1z" fill="#a0a2a4"/><path d="m364 93 1 1zm47 0 1 1z" fill="#d3d3d5"/><path d="m429 93 1 1z" fill="#a0a2a4"/><path d="m860 93 1 1z" fill="#5e6269"/><path d="m36 94 1 1z" fill="#a0a2a4"/><path d="m95 94 1 1zm13 0 1 1zm39 0 1 1zm199 0 1 1zm17 0 1 1zm49 0 1 1z" fill="#5e6269"/><path d="m770 94 1 1z" fill="#d3d3d5"/><path d="m834 94 1 1z" fill="#a0a2a4"/><path d="m860 94 1 1z" fill="#d3d3d5"/><path d="m35 95 1 1z" fill="#a0a2a4"/><path d="m94 95 1 1zm13 0 1 1zm39 0 1 1z" fill="#5e6269"/><path d="m345 95 1 1zm18 0 1 1z" fill="#d3d3d5"/><path d="m412 95 1 1z" fill="#a0a2a4"/><path d="m430 95 1 1z" fill="#d3d3d5"/><path d="m706 95 1 1z" fill="#5e6269"/><path d="m707 95v1h62l-20-1z" fill="#a0a2a4"/><path d="m835 95 1 1zm24 0 1 1z" fill="#5e6269"/><path d="m34 96 1 1z" fill="#a0a2a4"/><path d="m93 96 1 1zm13 0 1 1zm39 0 1 1zm200 0 1 1z" fill="#5e6269"/><path d="m412 96 1 1z" fill="#d3d3d5"/><path d="m430 96 1 1zm275 0v53h1v-36z" fill="#a0a2a4"/><path d="m835 96 1 1z" fill="#d3d3d5"/><path d="m33 97 1 1z" fill="#a0a2a4"/><path d="m92 97 1 1zm13 0 1 1zm39 0 1 1zm218 0 1 1zm51 0 1 1zm423 0 1 1z" fill="#5e6269"/><path d="m858 97 1 1zm-826 1 1 1z" fill="#a0a2a4"/><path d="m91 98 1 1zm13 0 1 1zm39 0 1 1z" fill="#5e6269"/><path d="m344 98 1 1z" fill="#a0a2a4"/><path d="m362 98 1 1zm51 0 1 1zm18 0 1 1z" fill="#d3d3d5"/><path d="m857 98 1 1z" fill="#5e6269"/><path d="m31 99 1 1z" fill="#a0a2a4"/><path d="m90 99 1 1zm52 0 1 1z" fill="#5e6269"/><path d="m156 99-21 22c6.303-4.44 19.161-14.412 21-22z" fill="#a0a2a4"/><path d="m157 99v60h1v-41zm187 0 1 1zm17 0 1 1zm70 0 1 1z" fill="#5e6269"/><path d="m837 99 1 1z" fill="#a0a2a4"/><path d="m857 99 1 1z" fill="#d3d3d5"/><path d="m30 100 1 1z" fill="#a0a2a4"/><path d="m89 100 1 1zm52 0 1 1z" fill="#5e6269"/><path d="m156 100c-5.934 5.934-15.196 12.447-18.972 20-4.718 9.437-1.028 28.492-1.028 39h21v-40z" fill="#fff"/><path d="m343 100 1 1z" fill="#d3d3d5"/><path d="m361 100 1 1zm53 0 1 1z" fill="#a0a2a4"/><path d="m432 100 1 1z" fill="#d3d3d5"/><path d="m838 100 1 1zm18 0 1 1zm-768 1 1 1zm52 0 1 1zm203 0 1 1z" fill="#5e6269"/><path d="m414 101 1 1z" fill="#d3d3d5"/><path d="m432 101 1 1z" fill="#a0a2a4"/><path d="m838 101v48h1c0-13.526 4.209-35.586-1-48m18 0 1 1z" fill="#d3d3d5"/><path d="m87 102 1 1zm52 0 1 1zm221 0 1 1zm55 0 1 1zm-329 1 1 1zm13 0 1 1zm39 0 1 1z" fill="#5e6269"/><path d="m342 103 1 1zm18 0 1 1zm55.333.667.334.666zm17.667-.667 1 1z" fill="#d3d3d5"/><path d="m85 104 1 1zm13 0 1 1zm39 0 1 1zm205 0 1 1zm91 0 1 1zm-349 1 1 1zm13 0 1 1zm39 0 1 1z" fill="#5e6269"/><path d="m341 105 1 1z" fill="#d3d3d5"/><path d="m360 105 1 1z" fill="#5e6269"/><path d="m361 105v1h54l-18-1z" fill="#a0a2a4"/><path d="m415 105 1 1zm-332 1 1 1zm13 0 1 1zm39 0 1 1z" fill="#5e6269"/><path d="m341 106 1 1zm93 0 1 1z" fill="#a0a2a4"/><path d="m82 107 1 1zm13 0 1 1zm39 0 1 1zm300 0 1 1zm-353 1 1 1zm13 0 1 1zm39 0 1 1z" fill="#5e6269"/><path d="m340 108 1 1zm95 0 1 1z" fill="#d3d3d5"/><path d="m80 109 1 1zm52 0 1 1zm208 0 1 1zm95 0 1 1zm-356 1 1 1zm52 0 1 1z" fill="#5e6269"/><path d="m339 110 1 1z" fill="#d3d3d5"/><path d="m78 111 1 1z" fill="#5e6269"/><path d="m92 111 1 1z" fill="#d3d3d5"/><path d="m130 111 1 1z" fill="#5e6269"/><path d="m339 111 1 1zm97 0 1 1z" fill="#a0a2a4"/><path d="m77 112 1 1zm52 0 1 1zm210 0 1 1zm97 0 1 1zm-360 1 1 1zm13 0 1 1zm39 0 1 1z" fill="#5e6269"/><path d="m338 113 1 1zm99 0 1 1z" fill="#d3d3d5"/><path d="m75 114 1 1zm13 0 1 1zm39 0 1 1z" fill="#5e6269"/><path d="m338 114 1 1zm99 0 1 1z" fill="#a0a2a4"/><path d="m74 115 1 1zm13 0 1 1zm39 0 1 1zm311 0 1 1zm-364 1 1 1zm13 0 1 1zm39 0 1 1z" fill="#5e6269"/><path d="m337 116 1 1z" fill="#a0a2a4"/><path d="m438 116 1 1z" fill="#d3d3d5"/><path d="m72 117 1 1zm13 0 1 1zm39 0 1 1zm213 0 1 1zm101 0 1 1zm-367 1 1 1zm52 0 1 1z" fill="#5e6269"/><path d="m336 118 1 1z" fill="#d3d3d5"/><path d="m70 119 1 1zm52 0 1 1z" fill="#5e6269"/><path d="m336 119 1 1zm103 0 1 1z" fill="#a0a2a4"/><path d="m69 120 1 1z" fill="#5e6269"/><path d="m83 120 1 1z" fill="#d3d3d5"/><path d="m121 120 1 1zm-53 1 1 1zm52 0 1 1z" fill="#5e6269"/><path d="m135 121v38h1c0-10.911 3.211-27.964-1-38m200 0 1 1z" fill="#d3d3d5"/><path d="m353 121 1 1z" fill="#a0a2a4"/><path d="m354 121v1h68l-21-1z" fill="#d3d3d5"/><path d="m422 121 1 1z" fill="#a0a2a4"/><path d="m440 121 1 1z" fill="#d3d3d5"/><path d="m67 122 1 1zm13 0 1 1zm39 0 1 1zm216 0 1 1zm17 0 1 1zm88 0 1 1zm-374 1 1 1zm13 0 1 1zm39 0 1 1z" fill="#5e6269"/><path d="m352 123 1 1zm71 0 1 1z" fill="#a0a2a4"/><path d="m65 124 1 1zm13 0 1 1zm39 0 1 1z" fill="#5e6269"/><path d="m334 124 1 1z" fill="#a0a2a4"/><path d="m423 124 1 1z" fill="#d3d3d5"/><path d="m441 124 1 1z" fill="#a0a2a4"/><path d="m64 125 1 1zm13 0 1 1zm39 0 1 1zm218 0 1 1zm17 0 1 1zm73 0 1 1zm17 0 1 1zm-378 1 1 1zm13 0 1 1zm39 0 1 1z" fill="#5e6269"/><path d="m333 126 1 1zm18 0 1 1z" fill="#d3d3d5"/><path d="m424 126 1 1z" fill="#a0a2a4"/><path d="m442 126 1 1z" fill="#d3d3d5"/><path d="m62 127 1 1zm52 0 1 1zm219 0 1 1zm17 0 1 1z" fill="#5e6269"/><path d="m442 127 1 1z" fill="#a0a2a4"/><path d="m113 128 1 1z" fill="#5e6269"/><path d="m350 128 1 1z" fill="#a0a2a4"/><path d="m425 128 1 1z" fill="#5e6269"/><path d="m74 129 1 1z" fill="#d3d3d5"/><path d="m112 129 1 1z" fill="#5e6269"/><path d="m332 129 1 1z" fill="#a0a2a4"/><path d="m350 129 1 1zm75 0 1 1z" fill="#d3d3d5"/><path d="m443 129 1 1z" fill="#a0a2a4"/><path d="m73 130 1 1z" fill="#d3d3d5"/><path d="m111 130 1 1zm238 0 1 1zm94 0 1 1zm-333 1 1 1z" fill="#5e6269"/><path d="m103 159h1c.356-10.984 13.726-19.726 21-27v27h1v-28c-9.318 4.345-22.874 17.33-23 28z" fill="#a0a2a4"/><path d="m331 131 1 1zm18 0 1 1z" fill="#d3d3d5"/><path d="m426 131 1 1z" fill="#a0a2a4"/><path d="m444 131 1 1z" fill="#d3d3d5"/><path d="m71 132v33h1zm38 0 1 1z" fill="#5e6269"/><path d="m124 132c-7.569 7.569-19.864 15.52-20 27h21z" fill="#fff"/><path d="m331 132 1 1zm113 0 1 1z" fill="#a0a2a4"/><path d="m108 133 1 1z" fill="#5e6269"/><path d="m348 133 1 1z" fill="#a0a2a4"/><path d="m427 133 1 1zm17 0 1 1zm-337 1 1 1z" fill="#5e6269"/><path d="m330 134 1 1zm18 0 1 1zm79 0 1 1zm18 0 1 1z" fill="#d3d3d5"/><path d="m106 135 1 1zm224 0 1 1zm17 0 1 1zm81 0 1 1zm17 0 1 1zm-340 1 1 1z" fill="#5e6269"/><path d="m329 136 1 1zm18 0 1 1z" fill="#d3d3d5"/><path d="m428 136 1 1z" fill="#a0a2a4"/><path d="m542 136 1 1z" fill="#5e6269"/><path d="m543 136v1h68l-21-1z" fill="#a0a2a4"/><path d="m104 137 1 1z" fill="#5e6269"/><path d="m329 137 1 1zm117 0 1 1z" fill="#a0a2a4"/><path d="m612 137 1 1z" fill="#d3d3d5"/><path d="m103 138 1 1zm243 0 1 1zm83 0 1 1zm17 0 1 1z" fill="#5e6269"/><path d="m613 138 1 1z" fill="#d3d3d5"/><path d="m102 139 1 1z" fill="#5e6269"/><path d="m328 139 1 1zm18 0 1 1zm83 0 1 1zm18 0 1 1z" fill="#d3d3d5"/><path d="m613 139 1 1z" fill="#a0a2a4"/><path d="m101 140 1 1zm227 0 1 1zm102 0 1 1zm17 0 1 1zm166 0v9h1zm-513 1 1 1z" fill="#5e6269"/><path d="m327 141 1 1z" fill="#d3d3d5"/><path d="m345 141 1 1zm85 0 1 1z" fill="#a0a2a4"/><path d="m99 142 1 1z" fill="#5e6269"/><path d="m327 142 1 1z" fill="#a0a2a4"/><path d="m430 142 1 1zm18 0 1 1z" fill="#d3d3d5"/><path d="m98 143 1 1zm229 0 1 1zm17 0 1 1zm87 0 1 1zm-334 1 1 1z" fill="#5e6269"/><path d="m326 144 1 1zm18 0 1 1z" fill="#d3d3d5"/><path d="m431 144 1 1z" fill="#a0a2a4"/><path d="m449 144 1 1z" fill="#d3d3d5"/><path d="m96 145 1 1zm230 0 1 1zm17 0 1 1z" fill="#5e6269"/><path d="m449 145 1 1z" fill="#a0a2a4"/><path d="m95 146 1 1z" fill="#5e6269"/><path d="m343 146 1 1zm89 0 1 1z" fill="#a0a2a4"/><path d="m94 147 1 1z" fill="#5e6269"/><path d="m325 147 1 1z" fill="#a0a2a4"/><path d="m432 147 1 1zm18 0 1 1zm-357 1v18h1z" fill="#d3d3d5"/><path d="m325.333 148.667.334.666zm16.667-.667 1 1zm91 0 1 1z" fill="#5e6269"/><path d="m450.333 148.667.334.666zm-235.333.333 1 1z" fill="#a0a2a4"/><path d="m286 149 1 1zm17 0 1 1zm39 0 1 1zm91 0 1 1zm56 0 1 1z" fill="#d3d3d5"/><path d="m525 149 1 1z" fill="#5e6269"/><path d="m613 149 1 1z" fill="#a0a2a4"/><path d="m652 149 1 1z" fill="#5e6269"/><path d="m705 149 1 1z" fill="#d3d3d5"/><path d="m855 149 1 1zm-656 1 1 1z" fill="#a0a2a4"/><path d="m214 150-1 2zm73 0 1 1zm15 0 1 1z" fill="#5e6269"/><path d="m325 150 1 1zm16 0 1 1zm93 0 1 1z" fill="#a0a2a4"/><path d="m450 150 1 1z" fill="#d3d3d5"/><path d="m473 150 1 1zm15 0 1 1z" fill="#5e6269"/><path d="m525 150 1 1zm88 0 1 1z" fill="#d3d3d5"/><path d="m652 150 1 1zm37 0 1 1z" fill="#a0a2a4"/><path d="m704 150 1 1z" fill="#5e6269"/><path d="m839 150 1 1zm16 0 1 1z" fill="#d3d3d5"/><path d="m200 151 1 1z" fill="#a0a2a4"/><path d="m214 151 1 1z" fill="#d3d3d5"/><path d="m288 151 1 1zm13 0 1 1z" fill="#5e6269"/><path d="m326 151 1 1z" fill="#a0a2a4"/><path d="m339 151 1 1z" fill="#5e6269"/><path d="m340 151 1 1zm95 0 1 1zm14 0 1 1z" fill="#a0a2a4"/><path d="m474 151 1 1zm13 0 1 1z" fill="#5e6269"/><path d="m526 151 1 1zm86 0 1 1zm25 0 1 1z" fill="#d3d3d5"/><path d="m638 151 1 1z" fill="#5e6269"/><path d="m651 151 1 1zm39 0 1 1z" fill="#a0a2a4"/><path d="m703 151 1 1z" fill="#5e6269"/><path d="m840 151 1 1z" fill="#a0a2a4"/><path d="m854 151 1 1zm-653 1 1 1z" fill="#d3d3d5"/><path d="m202 152v1h10z" fill="#a0a2a4"/><path d="m212 152 1 1zm77 0 1 1z" fill="#d3d3d5"/><path d="m290 152v1h10z" fill="#a0a2a4"/><path d="m300 152 1 1zm27 0 1 1z" fill="#d3d3d5"/><path d="m328 152v1h10z" fill="#a0a2a4"/><path d="m338 152 1 1zm99 0 1 1z" fill="#d3d3d5"/><path d="m438 152v1h10z" fill="#a0a2a4"/><path d="m448 152 1 1zm27 0 1 1z" fill="#d3d3d5"/><path d="m476 152v1h10z" fill="#a0a2a4"/><path d="m486 152 1 1zm42 0 1 1z" fill="#d3d3d5"/><path d="m529 152v1h81l-25-1z" fill="#a0a2a4"/><path d="m610 152 1 1zm29 0 1 1z" fill="#d3d3d5"/><path d="m640 152v1h10z" fill="#a0a2a4"/><path d="m691 152 1 1z" fill="#d3d3d5"/><path d="m692 152v1h10z" fill="#a0a2a4"/><path d="m702 152 1 1z" fill="#d3d3d5"/><path d="m842 152v1h10z" fill="#a0a2a4"/><path d="m852 152 1 1z" fill="#d3d3d5"/><path d="m71 165 1 1z" fill="#a0a2a4"/><path d="m166 165 1 1z" fill="#5e6269"/><path d="m94 166 1 1z" fill="#a0a2a4"/><path d="m166 166 1 1zm-96 1 1 1z" fill="#d3d3d5"/><path d="m95 167 1 1z" fill="#5e6269"/><path d="m165 167 1 1z" fill="#a0a2a4"/><path d="m0 168 1 1z" fill="#fff"/><path d="m1 168 1 1z" fill="#a0a2a4"/><path d="m2 168 1 1zm65 0 1 1z" fill="#5e6269"/><path d="m68 168 1 1z" fill="#a0a2a4"/><path d="m69 168 1 1zm27 0 1 1z" fill="#d3d3d5"/><path d="m97 168 1 1zm65 0 1 1z" fill="#5e6269"/><path d="m163 168 1 1z" fill="#a0a2a4"/><path d="m164 168 1 1z" fill="#d3d3d5"/></svg>