<svg width="462" height="96" viewBox="0 0 462 96" fill="none" xmlns="http://www.w3.org/2000/svg">
<path d="M87.4867 29.8942L29.7179 88.3536C27.6692 90.4269 24.2254 88.7482 24.4765 85.7907L27.6199 50.9214C27.7396 49.5428 28.7091 48.3571 30.0217 47.9961L48.0705 43.0322C51.4416 42.1051 53.4049 38.4798 52.3821 35.052C51.3994 31.7774 47.9752 29.9292 44.7234 30.8235C41.4717 31.7178 26.8537 35.7381 26.8537 35.7381C25.541 36.0991 24.1239 35.5698 23.3486 34.4373L3.60232 5.83044C1.92231 3.43687 4.10884 0.176849 6.89305 0.92099L85.4 21.9013C88.9067 22.8406 90.0659 27.2811 87.4867 29.8942Z" fill="#3BB900"/>
<path d="M139.8 74.428V54.238C139.8 52.3955 139.8 50.7871 139.8 49.413C139.8 48.0077 139.8 46.8366 139.8 45.8997C139.8 44.6817 139.722 43.4169 139.566 42.1053C139.41 40.7624 139.066 39.5288 138.535 38.4046C138.004 37.2803 137.177 36.3747 136.053 35.6876C134.96 34.9693 133.445 34.6102 131.509 34.6102C129.635 34.6102 128.042 35.0005 126.731 35.7813C125.45 36.5308 124.388 37.5458 123.545 38.8262C122.733 40.0754 122.14 41.5119 121.765 43.1359C121.39 44.7286 121.203 46.3681 121.203 48.0545L117.081 45.2907C117.081 41.1996 117.846 37.5458 119.376 34.3291C120.906 31.1124 123.077 28.5672 125.887 26.6935C128.729 24.7884 132.086 23.8359 135.959 23.8359C139.956 23.8359 143.126 24.6791 145.468 26.3655C147.811 28.0207 149.481 30.2692 150.481 33.1111C151.511 35.953 152.027 39.1385 152.027 42.6674C152.027 43.9791 152.027 45.7279 152.027 47.914C152.027 50.0689 152.027 52.6141 152.027 55.5497V74.428H139.8ZM108.883 74.428V24.6791H121.203V74.428H108.883ZM170.53 74.428V54.2849C170.53 52.3174 170.53 50.6466 170.53 49.2725C170.53 47.8984 170.53 46.7429 170.53 45.806C170.53 44.4944 170.452 43.1827 170.296 41.8711C170.14 40.5282 169.796 39.3259 169.265 38.264C168.734 37.171 167.907 36.2966 166.783 35.6407C165.658 34.9537 164.128 34.6102 162.192 34.6102C160.287 34.6102 158.679 34.9849 157.367 35.7344C156.086 36.484 155.056 37.4833 154.275 38.7325C153.494 39.9817 152.917 41.387 152.542 42.9485C152.198 44.51 152.027 46.0715 152.027 47.6329L147.904 44.916C147.904 40.9498 148.654 37.374 150.153 34.1886C151.652 31.0031 153.807 28.4892 156.617 26.6466C159.428 24.7728 162.77 23.8359 166.642 23.8359C170.546 23.8359 173.684 24.6323 176.058 26.225C178.431 27.8177 180.149 30.0038 181.211 32.7832C182.304 35.5314 182.85 38.67 182.85 42.199C182.85 43.5731 182.85 45.3219 182.85 47.4456C182.85 49.5692 182.85 52.0832 182.85 54.9875V74.428H170.53Z" fill="#172537"/>
<path d="M211.755 75.4586C208.038 75.4586 204.775 74.8808 201.964 73.7253C199.154 72.5386 196.952 70.8366 195.359 68.6193C193.767 66.402 192.97 63.7318 192.97 60.6089C192.97 57.2048 193.891 54.4098 195.734 52.2237C197.608 50.0064 200.122 48.3044 203.276 47.1177C206.43 45.8997 209.928 45.119 213.769 44.7754C219.453 44.2133 223.419 43.6824 225.668 43.1827C227.947 42.6518 229.087 41.8086 229.087 40.6531C229.087 40.6219 229.087 40.6063 229.087 40.6063C229.087 40.575 229.087 40.5594 229.087 40.5594C229.087 38.3733 228.104 36.6869 226.136 35.5002C224.169 34.3135 221.389 33.7201 217.798 33.7201C214.019 33.7201 211.115 34.3916 209.085 35.7344C207.086 37.0461 206.087 39.1385 206.087 42.0116H193.907C193.907 38.1079 194.938 34.8132 196.999 32.1274C199.091 29.4104 201.949 27.3493 205.571 25.9439C209.194 24.5386 213.301 23.8359 217.891 23.8359C222.17 23.8359 226.089 24.4761 229.649 25.7566C233.21 27.037 236.067 28.9732 238.222 31.5653C240.377 34.1573 241.454 37.3896 241.454 41.2621C241.454 41.9179 241.454 42.5737 241.454 43.2296C241.454 43.8854 241.454 44.5412 241.454 45.197V63.9348C241.454 65.1216 241.485 66.2927 241.548 67.4482C241.642 68.5724 241.813 69.5874 242.063 70.4931C242.376 71.4924 242.75 72.3356 243.187 73.0227C243.625 73.7097 243.968 74.1782 244.218 74.428H232.038C231.82 74.2094 231.508 73.7878 231.102 73.1632C230.727 72.5074 230.383 71.7579 230.071 70.9147C229.759 69.9778 229.524 68.9784 229.368 67.9166C229.212 66.8236 229.134 65.6212 229.134 64.3096L231.57 65.996C230.633 67.901 229.197 69.5718 227.26 71.0084C225.355 72.4137 223.076 73.5067 220.421 74.2875C217.767 75.0682 214.878 75.4586 211.755 75.4586ZM214.753 65.7618C217.314 65.7618 219.687 65.3246 221.873 64.4501C224.059 63.5757 225.824 62.2328 227.167 60.4215C228.51 58.5789 229.181 56.2211 229.181 53.348V46.6961L232.179 50.0689C230.18 50.8184 227.776 51.443 224.965 51.9426C222.154 52.4111 219.312 52.7858 216.439 53.0669C212.754 53.4104 209.975 54.0506 208.101 54.9875C206.258 55.9244 205.337 57.4547 205.337 59.5783C205.337 61.6395 206.118 63.1853 207.679 64.2159C209.241 65.2465 211.599 65.7618 214.753 65.7618Z" fill="#172537"/>
<path d="M257.484 53.5354V44.7754H292.289L290.884 47.1177C290.884 46.9303 290.884 46.7273 290.884 46.5087C290.884 46.2588 290.884 46.0558 290.884 45.8997C290.884 43.7449 290.4 41.7305 289.432 39.8568C288.464 37.9517 286.996 36.4215 285.028 35.266C283.061 34.0793 280.563 33.4859 277.533 33.4859C274.535 33.4859 271.928 34.1261 269.71 35.4065C267.524 36.6557 265.822 38.467 264.604 40.8405C263.417 43.2139 262.824 46.0558 262.824 49.3662C262.824 52.7702 263.402 55.7058 264.557 58.173C265.713 60.6089 267.399 62.4827 269.617 63.7943C271.865 65.0747 274.598 65.7149 277.814 65.7149C280 65.7149 281.89 65.5119 283.483 65.1059C285.075 64.7 286.371 64.1534 287.371 63.4664C288.401 62.7481 289.166 61.983 289.666 61.171C290.197 60.359 290.509 59.5471 290.603 58.7351H302.876C302.689 60.8275 301.986 62.873 300.768 64.8717C299.581 66.8392 297.911 68.6349 295.756 70.2588C293.601 71.8516 290.978 73.132 287.886 74.1001C284.825 75.037 281.328 75.5054 277.393 75.5054C272.052 75.5054 267.384 74.4124 263.386 72.2263C259.389 70.0402 256.266 66.9953 254.017 63.0916C251.8 59.1879 250.691 54.7221 250.691 49.6941C250.691 44.5412 251.816 40.0285 254.064 36.156C256.344 32.2836 259.498 29.2699 263.527 27.1151C267.555 24.929 272.177 23.8359 277.393 23.8359C282.764 23.8359 287.402 24.929 291.306 27.1151C295.24 29.3011 298.27 32.346 300.393 36.2497C302.517 40.1222 303.579 44.6349 303.579 49.7878C303.579 50.4436 303.563 51.1463 303.532 51.8958C303.501 52.6453 303.454 53.1918 303.391 53.5354H257.484Z" fill="#172537"/>
<path d="M313.736 74.428V24.6791H326.056V41.2152L323.199 39.6225C323.511 37.4677 324.089 35.4378 324.932 33.5328C325.775 31.5965 326.899 29.9101 328.305 28.4735C329.71 27.0058 331.412 25.8659 333.411 25.0539C335.409 24.2419 337.689 23.8359 340.25 23.8359C342.28 23.8359 343.873 23.9921 345.028 24.3044C346.215 24.5854 346.949 24.8197 347.23 25.007L344.981 36.2966C344.669 36.078 344.029 35.8125 343.061 35.5002C342.124 35.1567 340.859 34.9849 339.266 34.9849C336.737 34.9849 334.613 35.4221 332.895 36.2966C331.209 37.1398 329.866 38.2953 328.867 39.7631C327.867 41.1996 327.149 42.7923 326.712 44.5412C326.275 46.2588 326.056 47.9765 326.056 49.6941V74.428H313.736Z" fill="#172537"/>
<path d="M387.531 69.5093C390.467 69.7904 393.044 70.3369 395.261 71.1489C397.478 71.9609 399.211 73.1632 400.461 74.7559C401.71 76.3799 402.334 78.5347 402.334 81.2205C402.334 84.2185 401.319 86.8106 399.289 88.9966C397.26 91.1827 394.277 92.8691 390.342 94.0558C386.438 95.2426 381.629 95.8359 375.914 95.8359C367.607 95.8359 361.22 94.6336 356.755 92.2289C352.289 89.8555 350.056 86.6232 350.056 82.5321C350.056 81.3766 350.196 80.3304 350.477 79.3935C350.759 78.4566 351.102 77.6759 351.508 77.0513L362.798 78.6909C362.61 78.9407 362.423 79.3311 362.235 79.862C362.048 80.4241 361.954 81.0955 361.954 81.8763C361.954 83.8125 363.25 85.2022 365.842 86.0454C368.466 86.9199 371.948 87.3571 376.289 87.3571C379.474 87.3571 382.129 87.1385 384.252 86.7013C386.407 86.264 388.031 85.6395 389.124 84.8275C390.248 84.0155 390.811 83.063 390.811 81.97C390.811 80.346 390.077 79.2998 388.609 78.8314C387.141 78.3629 385.392 78.0506 383.362 77.8945L364.484 76.1612C361.111 75.8177 358.332 74.8184 356.146 73.1632C353.991 71.508 352.913 69.322 352.913 66.605C352.913 64.9498 353.351 63.4195 354.225 62.0142C355.131 60.6089 356.161 59.4378 357.317 58.5009C358.472 57.5327 359.456 56.9394 360.268 56.7208L367.295 60.1873C366.639 60.281 365.858 60.7026 364.952 61.4521C364.078 62.2016 363.641 63.0916 363.641 64.1222C363.641 65.0903 364.078 65.9023 364.952 66.5581C365.827 67.1827 367.513 67.6199 370.012 67.8698L387.531 69.5093ZM393.106 24.6791H404.161L399.664 43.9791C398.821 47.6017 397.463 50.8496 395.589 53.7227C393.715 56.5959 391.217 58.86 388.094 60.5152C384.971 62.1704 381.036 62.9979 376.289 62.9979C371.355 62.9979 367.092 62.2016 363.5 60.6089C359.94 58.9849 357.192 56.7208 355.256 53.8164C353.319 50.8808 352.351 47.508 352.351 43.698C352.351 39.7943 353.335 36.359 355.302 33.3922C357.301 30.3942 360.034 28.0519 363.5 26.3655C366.998 24.6791 370.949 23.8359 375.352 23.8359C378.912 23.8359 382.113 24.4293 384.955 25.616C387.797 26.7715 390.061 28.2862 391.747 30.1599C393.465 32.0337 394.386 34.0324 394.511 36.156L391.747 36.6713L393.106 24.6791ZM376.242 53.4885C378.647 53.4885 380.723 53.0981 382.472 52.3174C384.221 51.5367 385.58 50.4124 386.548 48.9446C387.516 47.4456 388 45.6342 388 43.5106C388 41.4182 387.516 39.6225 386.548 38.1235C385.58 36.6245 384.221 35.4846 382.472 34.7039C380.723 33.8919 378.662 33.4859 376.289 33.4859C373.978 33.4859 371.932 33.8919 370.152 34.7039C368.372 35.5158 366.967 36.6869 365.936 38.2172C364.937 39.7162 364.437 41.5119 364.437 43.6043C364.437 45.6967 364.921 47.4924 365.889 48.9914C366.889 50.4592 368.263 51.5835 370.012 52.3642C371.792 53.1138 373.868 53.4885 376.242 53.4885Z" fill="#172537"/>
<path d="M434.897 75.4117C429.651 75.4117 425.029 74.3187 421.031 72.1326C417.034 69.9153 413.895 66.8548 411.615 62.9511C409.367 59.0474 408.243 54.5815 408.243 49.5536C408.243 44.4944 409.367 40.0441 411.615 36.2029C413.895 32.3304 417.034 29.3011 421.031 27.1151C425.029 24.929 429.651 23.8359 434.897 23.8359C440.144 23.8359 444.766 24.929 448.763 27.1151C452.76 29.3011 455.883 32.3304 458.132 36.2029C460.412 40.0441 461.552 44.4944 461.552 49.5536C461.552 54.5815 460.412 59.0474 458.132 62.9511C455.883 66.8548 452.76 69.9153 448.763 72.1326C444.766 74.3187 440.144 75.4117 434.897 75.4117ZM434.897 65.3402C437.739 65.3402 440.222 64.6843 442.345 63.3727C444.469 62.0611 446.124 60.2341 447.311 57.8919C448.498 55.5184 449.091 52.739 449.091 49.5536C449.091 46.3681 448.498 43.6199 447.311 41.3089C446.124 38.9667 444.469 37.1554 442.345 35.875C440.222 34.5946 437.739 33.9544 434.897 33.9544C432.086 33.9544 429.604 34.5946 427.449 35.875C425.325 37.1554 423.67 38.9667 422.483 41.3089C421.297 43.6199 420.703 46.3681 420.703 49.5536C420.703 52.739 421.297 55.5184 422.483 57.8919C423.67 60.2341 425.325 62.0611 427.449 63.3727C429.604 64.6843 432.086 65.3402 434.897 65.3402Z" fill="#172537"/>
</svg>
