<svg height="1.25in" viewBox="0 0 82.55 31.75" width="3.25in" xmlns="http://www.w3.org/2000/svg"><path d="m22.376309 1.4918105c-.578382 1.518256-1.66285 2.675022-1.66285 2.675022s-6.821598-.420995-7.952776.144594c-1.156768.578383-1.952044 1.879746-.795278 1.952044 1.156766.0723 4.034225.04338 4.843961.28919 4.048687 1.229065-.000002 6.1453385-2.241233 6.8683185-2.241238.72298-13.0859323.28918-13.0859323.28918l1.301363-2.675026s7.3915503-.05281 8.0973713-.289191c1.313767-.43999 1.838838-1.1724625 1.373661-1.8074485-.498263-.680149-3.9922533.05941-5.0608553-.43379-.939875-.433786-1.44596-1.952042-.939873-3.181109.506084-1.229066 1.229063-2.458129 3.036511-3.470301 1.8074513-1.01217097 13.0859303-.361489 13.0859303-.361489z" fill="#ed3f3e" stroke-linejoin="round" stroke-width="2.334"/><path d="m26.802154 1.3919415c-.314173.0028-.802357.03862-1.678451.172083-1.198364.182561-2.024165 1.518253-2.024165 1.518253l-4.988843 8.4589115s-.728651.88091.344165 1.37821c.709495.3289 1.969389.57361 1.969389.57361l11.567769-.0718s1.156494-.21724 1.879472-.50643c.722978-.2892 1.518253-1.5906 1.518253-1.5906l4.121191-7.2295305s.87222-1.1026.45579-1.692919c-.70163-.994609-1.10639-.765328-1.10639-.765328s-11.061588-.217041-11.423077-.217041c-.180745 0-.32093-.03017-.635103-.02739zm.818038 2.614311c.07456.0023.124023.01602.124023.01602.144598 0 5.983098.03617 5.983098.03617s.30697.05442.325044.289388c.01807.234969-.126607.469739-.126607.469739l-3.145028 5.7474535s-.144339.434095-.379305.452168c-.234968.01807-.560172.07234-.560172.07234l-6.000667.0181s-.434106-.0364-.470256-.289367c-.03615-.253042 0-.433565 0-.433565l3.65094-5.9830985s.126747-.252757.325562-.343131c.09941-.04518.198811-.05445.273368-.05219z" fill="#ed3f3e"/><g stroke-linejoin="round"><path d="m35.478928 13.496309 7.208256-12.1160065 4.95887.204491 1.68704 7.157132 4.14091-7.259378 4.54989-.102245-7.10601 12.1671265-5.06111-.10225-1.78929-6.1858035-3.83418 6.2880535z" fill="#ed3f3e" stroke-width="2.334"/><path d="m59.762054 1.4825475 5.2656.05112-7.15713 12.0648815-5.47009-.10224z" fill="#ed3f3e" stroke-width="2.334"/><path d="m79.802024 1.6870365-1.48255 2.607241-6.59478-.102243s-.80095-.137863-1.42063.72298c-.38248.531334-3.23151 5.5139475-3.23151 5.5139475.0131.0065-.43681.548429-.10225.613471.41382.08045 7.25938.204486 7.25938.204486l-1.43143 2.45388-10.42896-.10225s-1.46704-.0687-1.46394-1.13966c.002-.81955.33925-1.416456.33925-1.416456l4.24316-7.2593785s.86908-1.226937 1.73816-1.635916c1.79926-.846705 3.37407-.562345 3.37407-.562345z" fill="#ed3f3e" stroke-width="2.334"/><path d="m5.0708132 16.163301v.948111h-.7932938v3.789516h-1.3359067v-3.789516h-.7901206v-.948111z" fill="#015297" stroke-width="4.58766"/><path d="m5.375438 16.163301h.9456061q.9456063 0 1.2787896.06731.3363566.06731.5457861.345299.2126028.275069.2126028.880807 0 .553064-.1491392.743271-.1491392.190208-.5870374.22825.3966469.09071.5330934.24288.1364465.152166.1681782.280921.034905.12583.034905.699378v1.249517h-1.2407114v-1.574336q0-.380415-.066637-.471129-.063463-.09071-.3395297-.09071v2.136176h-1.3359065zm1.3359067.810576v1.053456q.2252954 0 .3141443-.0556.092022-.05852.092022-.371636v-.260438q0-.225322-.088849-.295552-.085676-.07023-.3173173-.07023z" fill="#015297" stroke-width="4.58766"/><path d="m11.182348 16.163301.764735 4.737627h-1.367638l-.06663-.851544h-.479151l-.07933.851544h-1.3835089l.6790594-4.737627zm-.707618 3.046244q-.101541-.804723-.203083-1.986936-.203083 1.357789-.253854 1.986936z" fill="#015297" stroke-width="4.58766"/><path d="m15.158336 16.163301v4.737627h-1.170901l-.694925-2.153733v2.153733h-1.116958v-4.737627h1.116958l.748869 2.133249v-2.133249z" fill="#015297" stroke-width="4.58766"/><path d="m18.525076 17.597172h-1.240711v-.351152q0-.245806-.0476-.313111-.0476-.06731-.158659-.06731-.12058 0-.184044.09071-.06029.09071-.06029.27507 0 .237027.06981.357004.06664.119977.377608.289701.891662.488687 1.123304.801797.231641.31311.231641 1.009562 0 .506244-.1301.746199-.126927.239954-.495016.403824-.368087.160945-.856756.160945-.536267 0-.917048-.187281-.377608-.187281-.495015-.476982-.117408-.2897-.117408-.82228v-.310185h1.240711v.576475q0 .26629.05078.342373.05394.07608.187217.07608.133273 0 .196737-.09657.06663-.09657.06663-.286774 0-.418456-.123753-.547212-.126927-.128755-.625116-.430161-.498189-.304332-.66002-.441867-.161832-.137534-.26972-.380415-.104715-.24288-.104715-.620369 0-.544285.149139-.795944.152313-.251659.488669-.39212.336357-.143387.812333-.143387.520401 0 .885316.155092.368089.155092.485496.39212.12058.234102.12058.798871z" fill="#015297" stroke-width="4.58766"/><path d="m19.054996 16.163301h1.345427q.545786 0 .837717.07901.295106.079.441072.228248.149139.149241.19991.362858.05394.210691.05394.655484v.412604q0 .453571-.10154.661336-.101541.207765-.374436.318963-.269719.111198-.707618.111198h-.358568v1.907927h-1.335907zm1.335907.810576v1.205622q.05712.0029.09836.0029.184044 0 .253854-.08193.07299-.08486.07299-.348227v-.389193q0-.24288-.0825-.316037-.08251-.07316-.342703-.07316z" fill="#015297" stroke-width="4.58766"/><path d="m25.369614 18.937402q0 .714009-.03808 1.012489-.0349.295553-.228468.54136-.190392.245805-.517228.377488-.326837.131682-.761563.131682-.412512 0-.742522-.122903-.326837-.125829-.526747-.374562-.19991-.248733-.237989-.54136-.03808-.292626-.03808-1.024194v-.810576q0-.714009.03491-1.009562.03808-.298479.228469-.544286.193563-.245806.5204-.377488.326837-.131682.761562-.131682.412513 0 .73935.125829.33001.122903.529921.371636.19991.248733.237988.541359.03808.292627.03808 1.024194zm-1.335907-1.556774q0-.330668-.04125-.421383-.03808-.09364-.161832-.09364-.104714 0-.161831.07608-.05394.07316-.05394.43894v2.212258q0 .412604.03491.50917.03808.09657.171352.09657.136447 0 .174524-.111199.03808-.111198.03808-.529654z" fill="#015297" stroke-width="4.58766"/><path d="m25.867804 16.163301h.945606q.945606 0 1.278789.06731.336357.06731.545786.345299.212603.275069.212603.880807 0 .553064-.149139.743271-.14914.190208-.587037.22825.396646.09071.533093.24288.136446.152166.168178.280921.03491.12583.03491.699378v1.249517h-1.240713v-1.574336q0-.380415-.06664-.471129-.06347-.09071-.33953-.09071v2.136176h-1.335906zm1.335906.810576v1.053456q.225296 0 .314144-.0556.09202-.05852.09202-.371636v-.260438q0-.225322-.08885-.295552-.08567-.07023-.317317-.07023z" fill="#015297" stroke-width="4.58766"/><path d="m32.058669 16.163301v.948111h-.793294v3.789516h-1.335907v-3.789516h-.79012v-.948111z" fill="#015297" stroke-width="4.58766"/><path d="m34.409992 16.163301.764734 4.737627h-1.367638l-.06663-.851544h-.479149l-.07933.851544h-1.383504l.679059-4.737627zm-.707619 3.046244q-.101541-.804723-.203083-1.986936-.203083 1.357789-.253853 1.986936z" fill="#015297" stroke-width="4.58766"/><path d="m37.735478 16.163301v.948111h-.793294v3.789516h-1.335906v-3.789516h-.79012v-.948111z" fill="#015297" stroke-width="4.58766"/><path d="m39.376008 16.163301v4.737627h-1.335907v-4.737627z" fill="#015297" stroke-width="4.58766"/><path d="m42.964871 18.937402q0 .714009-.03808 1.012489-.03491.295553-.228469.54136-.190391.245805-.517228.377488-.326837.131682-.761562.131682-.412512 0-.742523-.122903-.326837-.125829-.526747-.374562-.19991-.248733-.237988-.54136-.03808-.292626-.03808-1.024194v-.810576q0-.714009.03491-1.009562.03808-.298479.228468-.544286.193564-.245806.520401-.377488.326837-.131682.761562-.131682.412513 0 .73935.125829.33001.122903.52992.371636.19991.248733.237989.541359.03808.292627.03808 1.024194zm-1.335906-1.556774q0-.330668-.04125-.421383-.03808-.09364-.161832-.09364-.104716 0-.161833.07608-.05394.07316-.05394.43894v2.212258q0 .412604.03491.50917.03808.09657.171351.09657.136447 0 .174525-.111199.03808-.111198.03808-.529654z" fill="#015297" stroke-width="4.58766"/><path d="m46.445843 16.163301v4.737627h-1.170902l-.694924-2.153733v2.153733h-1.116958v-4.737627h1.116958l.748869 2.133249v-2.133249z" fill="#015297" stroke-width="4.58766"/><path d="m51.025374 18.699106v.618864l-.280232.163217.349061.612064h-.9169l-.120451-.204021q-.462137.281096-.87511.281096-.43264 0-.666167-.265228-.233526-.265227-.233526-.639267 0-.299231.137657-.469249.137659-.170018.412975-.276562-.393309-.260694-.393309-.705007 0-.383107.280232-.616598.280233-.233491.771868-.233491.442472 0 .695664.228957.25565.228958.25565.582594 0 .371773-.30973.659669l.351519.584861zm-1.531444-.643801q.167156-.201755.167156-.385374 0-.07934-.04916-.145082-.04917-.06574-.137658-.06574-.08112 0-.122909.04987-.04179.04987-.04179.151882 0 .213089.184363.394442zm.223694 1.419081-.322021-.494185q-.184363.15415-.184363.333235 0 .129214.05654.194954.05899.06347.172072.06347.120451 0 .277774-.09748z" fill="#015297" stroke-width="3.55394"/><path d="m54.353398 16.163301v3.789516h.812333v.948111h-2.14824v-4.737627z" fill="#015297" stroke-width="4.58766"/><path d="m58.443619 18.937402q0 .714009-.03808 1.012489-.03491.295553-.228469.54136-.19039.245805-.517227.377488-.326837.131682-.761562.131682-.412513 0-.742523-.122903-.326837-.125829-.526747-.374562-.19991-.248733-.237988-.54136-.03808-.292626-.03808-1.024194v-.810576q0-.714009.03491-1.009562.03808-.298479.228469-.544286.193564-.245806.520401-.377488.326837-.131682.761562-.131682.412513 0 .739349.125829.330011.122903.52992.371636.199911.248733.237989.541359.03808.292627.03808 1.024194zm-1.335908-1.556774q0-.330668-.04125-.421383-.03808-.09364-.161833-.09364-.104714 0-.161831.07608-.05394.07316-.05394.43894v2.212258q0 .412604.03491.50917.03808.09657.171352.09657.136446 0 .174524-.111199.03808-.111198.03808-.529654z" fill="#015297" stroke-width="4.58766"/><path d="m62.007092 17.907356h-1.335906v-.430161q0-.406751-.03808-.509171-.03808-.102419-.18087-.102419-.123754 0-.168178.08779-.04442.08779-.04442.450645v2.27371q0 .318963.04442.421382.04442.09949.177697.09949.145967 0 .196737-.114125.05394-.114125.05394-.444793v-.561843h-.26972v-.719862h1.564375v2.542927h-.84089l-.123755-.339447q-.136447.21947-.345876.330668-.206257.108271-.488668.108271-.336358 0-.631462-.149239-.291933-.152165-.444245-.374562-.152312-.222396-.190391-.465276-.03808-.245807-.03808-.734494v-1.407535q0-.678893.07933-.986151.07933-.307259.453765-.561844.377607-.257511.974164-.257511.587038 0 .974165.222395.387127.222397.504535.529656.117407.304332.117407.886659z" fill="#015297" stroke-width="4.58766"/><path d="m63.860229 16.163301v4.737627h-1.335907v-4.737627z" fill="#015297" stroke-width="4.58766"/><path d="m67.226966 17.597172h-1.240711v-.351152q0-.245806-.0476-.313111-.0476-.06731-.158659-.06731-.12058 0-.184044.09071-.06029.09071-.06029.27507 0 .237027.06981.357004.06664.119977.377607.289701.891663.488687 1.123305.801797.231641.31311.231641 1.009562 0 .506244-.1301.746199-.126927.239954-.495016.403824-.368087.160945-.856756.160945-.536267 0-.917048-.187281-.377608-.187281-.495015-.476982-.117408-.2897-.117408-.82228v-.310185h1.240711v.576475q0 .26629.05078.342373.05394.07608.187217.07608.133273 0 .196737-.09657.06664-.09657.06664-.286774 0-.418456-.123753-.547212-.126927-.128755-.625116-.430161-.498189-.304332-.66002-.441867-.161832-.137534-.26972-.380415-.104715-.24288-.104715-.620369 0-.544285.149139-.795944.152313-.251659.488669-.39212.336357-.143387.812333-.143387.520401 0 .885316.155092.368089.155092.485496.39212.12058.234102.12058.798871z" fill="#015297" stroke-width="4.58766"/><path d="m70.44774 16.163301v.948111h-.793293v3.789516h-1.335907v-3.789516h-.79012v-.948111z" fill="#015297" stroke-width="4.58766"/><path d="m72.088274 16.163301v4.737627h-1.335906v-4.737627z" fill="#015297" stroke-width="4.58766"/><path d="m75.74377 18.229246h-1.335907v-.825208q0-.359931-.04442-.447719-.04125-.09071-.187218-.09071-.165004 0-.209428.108272-.04442.108272-.04442.468203v2.200553q0 .3453.04442.450645.04442.105346.19991.105346.149138 0 .193563-.105346.0476-.105345.0476-.49454v-.594032h1.335908v.184355q0 .734494-.114235 1.041751-.111061.307258-.498188.538434-.383955.231174-.94878.231174-.587037 0-.967818-.196059-.380781-.19606-.504535-.541359-.123754-.348227-.123754-1.044679v-1.384123q0-.512097.03808-.766682.03808-.257512.225296-.49454.19039-.237028.523573-.371636.336357-.137534.771082-.137534.59021 0 .974165.210691.383954.210692.504534.526728.120582.31311.120582.977373z" fill="#015297" stroke-width="4.58766"/><path d="m79.053394 17.597172h-1.240712v-.351152q0-.245806-.0476-.313111-.0476-.06731-.158659-.06731-.120581 0-.184044.09071-.06029.09071-.06029.27507 0 .237027.06981.357004.06663.119977.377607.289701.891662.488687 1.123304.801797.231642.31311.231642 1.009562 0 .506244-.130101.746199-.126926.239954-.495015.403824-.368088.160945-.856757.160945-.536266 0-.917048-.187281-.377607-.187281-.495015-.476982-.117408-.2897-.117408-.82228v-.310185h1.240712v.576475q0 .26629.05077.342373.05394.07608.187218.07608.133274 0 .196737-.09657.06663-.09657.06663-.286774 0-.418456-.123755-.547212-.126927-.128755-.625114-.430161-.498189-.304332-.660021-.441867-.161832-.137534-.26972-.380415-.104715-.24288-.104715-.620369 0-.544285.14914-.795944.152311-.251659.488668-.39212.336356-.143387.812333-.143387.520401 0 .885315.155092.368089.155092.485496.39212.120582.234102.120582.798871z" fill="#015297" stroke-width="4.58766"/><path d="m6.7992727 8.3840685s-1.073568-.102245-1.099129-.613468c-.02556-.511225.127804-.971325.127804-.971325l58.4328663.07668-.23005 1.405866z" fill="#a0add2" stroke="#fff" stroke-width=".334"/></g><path d="m1.265306 15.011531h78.877068v.433788h-78.877068z" fill="#a0add2"/><path d="m1.170126 21.578371h78.877068v.433788h-78.877068z" fill="#a0add2"/><path d="m63.603244 8.1718925c.0128-.115025 0-1.188596 0-1.188596l-.51122-.434538-.10224-.779619 1.87874.07668s.52401.02556 1.03523.40898c.51122.383418 1.03523.779616 1.03523.779616l7.11879.07668 1.96821.562345c-.78663.242955-1.49393.60491-2.40275.664591 0 0-8.55022.08946-8.81861.0639s-1.20138-.23005-1.20138-.23005z" fill="#02539c" stroke="#fff" stroke-linejoin="bevel" stroke-width=".333999"/><path d="m72.531054 26.422729c3.03651-.50609 2.02434-.43379 4.26558-.36149s4.12098.65068 4.12098.65068l-1.37366 1.87975.86757 2.38583s-2.24015-.68243-3.90408-.72298c-1.80684-.044-3.47031.36149-3.47031.36149z" fill="#f13c40" stroke="#bb5155" stroke-linejoin="bevel" stroke-width=".333999"/><path d="m10.644014 26.375989c-3.0365103-.50609-2.0243403-.43379-4.2655803-.36149s-4.12098.65069-4.12098.65069l1.37366 1.87974-.86757 2.38583s2.24015-.68242 3.90408-.72297c1.80684-.044 3.4703103.36148 3.4703103.36148z" fill="#f13c40" stroke="#bb5155" stroke-linejoin="bevel" stroke-width=".333999"/><path d="m9.1874067 29.989709-.36149-4.19328s6.6363513-1.686 30.9434773-2.16894c13.73466-.27288 34.26923 2.09664 34.26923 2.09664l-.50609 4.48248s-22.55673-2.10956-33.54625-2.09664c-11.355849.0134-30.7988773 1.87974-30.7988773 1.87974z" fill="#f13c40" stroke="#fff" stroke-linejoin="bevel" stroke-width=".634"/><path d="m9.1980547 29.965329-.36149-4.19329s6.6363513-1.68599 30.9435193-2.16893c13.73466-.27288 34.26923 2.09664 34.26923 2.09664l-.50609 4.48247s-22.55673-2.10956-33.54625-2.09664c-11.355888.0133-30.7989193 1.87975-30.7989193 1.87975z" fill="#f13c40" stroke="#bb5155" stroke-linejoin="bevel" stroke-width=".333999"/><g fill="#fff" stroke-linejoin="bevel" stroke-width=".496078"><path d="m11.609335 28.618073q-.144135.07453-.299334.122108-.153535.04885-.318135.07077-.16019.02132-.305971.0048-.145585-.01502-.266276-.06776-.253727-.108315-.417882-.33026-.16435-.223415-.2026929-.511464-.030713-.230733.022433-.438229.054616-.207691.1880918-.373531.124166-.157122.304555-.25143.181663-.09597.416805-.127275.151373-.02015.307933-.01257.158029.0074.321244.04249l.06691.502616-.220446.02934-.103098-.31383-.048-.04596q-.06466-.01383-.126479-.01756-.06035-.0039-.117667.0037-.314502.04186-.469159.295777-.153383.252247-.101151.644641.0536.402681.276447.604848.222845.202167.560862.157173.03674-.0049.08132-.0183.04605-.01361.0972-.03388l.03949-.05162.02369-.372587.220446-.02934z"/><path d="m11.802591 28.669881-.01417-.120474.149033-.03096.03522-.04323-.154746-1.315572-.04387-.03026-.152009.0057-.01417-.120474 1.244492-.146385.04549.38672-.171072.02012-.06767-.211893-.03033-.02941-.493942.0581.06915.587911.321665-.03784.02962-.0389.0045-.180072.145773-.01715.06731.57225-.145773.01715-.04627-.175325-.0377-.02977-.321665.03784.07539.64092.575864-.06774.02424-.04316.009-.266105.169868-.01998.05201.442139z"/><path d="m13.257709 28.499953-.01308-.120597.149307-.02961.03802-.04317-.142831-1.316919-.03877-.03118-.15929.0051-.01308-.120597.711523-.07717.01308.120597-.149438.02841-.036.03929.145971 1.345862.475152-.05154.02704-.0432.0048-.304341.183307-.01988.05245.483594z"/><path d="m14.605707 28.354219-.01221-.120688.149517-.02853.03592-.04265-.133305-1.317917-.04337-.03097-.152081.0032-.01221-.120688 1.246711-.126103.03919.38741-.171377.01733-.06422-.212966-.02985-.0299-.494822.05005.05957.588959.322238-.03259.03025-.03842.0074-.179976.146033-.01477.05798.57327-.146033.01477-.04341-.176055-.03721-.03037-.322238.03259.06494.642062.576891-.05835.02494-.04276.01334-.265922.17017-.01721.0448.442927z"/><path d="m16.579196 28.015808.0086.000408q.07522-.0035.111446-.0069.217377-.02057.308977-.108434.09149-.08907.07492-.264183-.01497-.158202-.11527-.226693-.100416-.0697-.286394-.0521-.05434.0051-.09046.0098-.03612.0046-.07212.01048zm-.07272-.781463q.0098.000294.02438.00013.01449-.0014.04227-.004.193224-.01828.276485-.104141.08435-.08718.0687-.252628-.01371-.144918-.104874-.206964-.09116-.06205-.266272-.04548-.02898.0027-.09132.01351l-.0072.000686zm-.578119-.688562.742704-.07027q.272928-.02582.419856.05897.146812.08359.165094.27681.01383.146125-.06617.253608-.08011.106275-.24967.168619.212889-.01649.341179.07738.12829.09387.145772.278638.02217.234284-.126568.375076-.148848.139584-.45076.168149l-.764442.07233-.01143-.120765.144869-.02711.0362-.04241-.124773-1.318753-.04317-.03125-.147268.0017z"/><path d="m18.022949 26.493742.05839.645129q.01581-.000184.03405-.000582.01933-.0017.05437-.0048.200579-.01778.28886-.107193.08828-.08942.07329-.258579-.01371-.154663-.11513-.227267-.101422-.0726-.279043-.05686zm-.520018-.09639.752774-.06672q.285161-.02527.442105.0692.158152.09437.176571.302196.0151.170371-.08291.287441-.09811.115862-.304934.173161.09376.01361.159911.0455.06725.03057.113475.08493.0586.07031.12576.237285.03255.07871.05048.116088.04613.09455.111182.127757.06615.03189.196649.02032l.03142-.0028.01049.118414q-.06802.01577-.13042.02617-.0612.01029-.115569.01511-.07612.0067-.145502-.0066-.06828-.01465-.118614-.04672-.120083-.07704-.201792-.270734-.01092-.02704-.01715-.04232-.08882-.205242-.175454-.262108-.08674-.05807-.246236-.04394l-.04229.0037.04937.557029.0433.03513.152216-.000095.01071.120831-.698401.0619-.01071-.120831.145027-.02625.03645-.0422-.11694-1.31947-.04298-.03151-.147275.000874z"/><path d="m19.851783 26.517305-.164022.629657.436385-.03649zm-.0828-.33513.259896-.02173.697532 1.485176.14839.01315.01011.120883-.668479.0559-.01011-.120883.154625-.02875.0155-.03295-.183863-.408237-.540344.04519-.11371.430687.02801.02931.157454.0051.01011.120883-.533091.04458-.01011-.120882.146765-.0354z"/><path d="m20.476462 26.141336 1.428121-.113229.03471.437747-.170504.01352-.06332-.26147-.03877-.02856-.297475.02359.106806 1.347102.04539.03534.161885.00055.0096.120925-.741269.05877-.0096-.120925.160985-.02615.03805-.04196-.106805-1.347101-.296266.02349-.03499.03441-.02133.268181-.170504.01352z"/><path d="m22.141693 27.682074-.0092-.120957.163492-.02578.03819-.04183-.100181-1.320848-.04378-.03196-.165419.000381-.0092-.120957.741465-.05624.0092.120957-.164793.02466-.03726.0381.100181 1.320848.04285.03568.16672.000737.0092.120956z"/><path d="m23.005718 27.61593-.0085-.11857.144915-.03112.04154-.04799-.09448-1.310323-.03762-.03256-.15695-.000845-.0087-.120991.567443-.04091.0048.06654.843491 1.122535-.07651-1.061083-.04817-.04396-.152284-.0036-.0087-.12099.565024-.04074.0087.12099-.145352.02507-.03894.05024.106693 1.479709-.277068.01998-.953782-1.269039.0827 1.146986.04315.04189.15514.0095.0085.11857z"/><path d="m25.676805 26.606066.723764-.04867.0082.122241-.143213.02179-.03645.03649.0389.578528q-.143029.06068-.279296.09537-.136266.03469-.2694.04365-.388509.02612-.646847-.199662-.258338-.225786-.284462-.614295-.02588-.384878.20548-.632649.232488-.249062.641573-.276569.123451-.0083.255548.0035.133307.0117.27405.04358l.02832.421188-.181546.01221-.06486-.259463-.04053-.04226q-.04979-.01732-.101279-.02358-.05148-.0063-.107159-.0025-.278371.01872-.42568.214637-.146181.194628-.124452.517781.0223.331625.197094.508317.175925.175401.465189.155951.01937-.0013.05438-.0049.03494-.0048.08068-.0115l-.03402-.50591-.04101-.03128-.184781.000267z"/><path d="m28.147468 25.633041-.613883.885483.66499-.04021zm.03244-.420211.297029-.01796.0763 1.262003.341362-.02064.01439.237918-.341362.02064.03878.641346-.354661.02144-.03878-.641346-.94133.05691-.01483-.245307z"/><path d="m29.774985 25.272094q-.177382.0098-.255333.235092-.07795.225251-.05401.65688.02468.444932.125756.663218.102469.216725.281329.206803.17886-.0099.255332-.235092.07795-.225251.05351-.665749-.02444-.440498-.126824-.655745-.100909-.215329-.279769-.205407zm-.01239-.169826q.35772-.01985.580328.251008.222526.269374.24975.76013.02722.490756-.16414.783091-.189969.290774-.549167.310701-.35772.01984-.577208-.248216-.219569-.269538-.246793-.760294-.02731-.492235.161102-.784405.189887-.292253.546128-.312015z"/><path d="m31.342837 25.050934.829314-.03957.0071.148092-.169599.02294-.02637.03836.452882.750222.398437-.764125-.02596-.04626-.183637-.02241-.0071-.148091.660489-.03152.0071.148092-.177565.04261-.52937 1.006374.03173.664932.05085.03913.206625.0065.0072.151054-.909284.04339-.0072-.151053.202108-.02597.04985-.04394-.02826-.592367-.635274-1.026502-.196965-.02177z"/><path d="m33.397842 26.993134-.0051-.121198.150937-.01969.03837-.04046-.05557-1.323476-.04147-.03347-.152006-.0058-.0051-.121197 1.251969-.05256.01633.389044-.172101.0072-.05158-.216375-.02804-.0316-.49691.02086.02483.591444.323598-.01359.03246-.03657.01797-.179229.146649-.0062.02417.575688-.146649.0062-.03298-.178304-.03536-.03251-.323597.01359.02707.64477.579324-.02432.02741-.04122.02895-.264677.170888-.0072.01867.444795z"/><path d="m35.493211 25.564056-.193743.621156.437626-.01572zm-.06679-.338685.260636-.0094.626203 1.51663.147598.02019.0044.121226-.67038.02409-.0044-.121226.155816-.02138.01705-.03217-.164265-.41651-.54188.01947-.134038.424799.02659.0306.157035.01256.0044.121226-.534606.01921-.0044-.121226.148281-.02839z"/><path d="m36.957623 25.334578.01963.647468q.0158.000765.03402.0015.0194-.000552.05456-.0016.201284-.0057.294765-.08969.09348-.08396.08865-.253722-.0044-.155207-.101303-.233759-.09689-.07855-.275134-.07348zm-.513306-.127386.755419-.02148q.286163-.0081.437163.09557.152212.103676.158143.312235.0049.17097-.09999.281956-.104882.109773-.314763.154574.09278.01921.156896.055.0653.03455.108182.09158.05428.0737.111313.244395.02777.08052.04343.118905.04038.09715.103326.134191.06412.0358.195077.03207l.03153-.000896.0034.11883q-.06884.01167-.131754.01831-.0617.0066-.116267.0082-.07639.0022-.144846-.0153-.06728-.01872-.1156-.05375-.11525-.0841-.185205-.282341-.0093-.02765-.01458-.04327-.07636-.210197-.15943-.272152-.0831-.06317-.24316-.05862l-.04244.0012.0159.558986.04112.03766.151948.009.0034.121255-.700855.01993-.0034-.121255.146339-.01751.03891-.03994-.03765-1.324107-.04101-.03403-.147063-.008z"/><path d="m38.230596 26.770578-.009-.449948.187984-.0038.04598.297549.0335.03694q.05492.01589.108448.02331.05475.0074.110535.0063.145536-.0029.231573-.06893.08604-.06602.0839-.17275-.0019-.0946-.0652-.16613-.06212-.07277-.206658-.141465-.02329-.01167-.07102-.03255-.171367-.07544-.257693-.145298-.08509-.06867-.131732-.156308-.04664-.08764-.04848-.17981-.0043-.213453.155487-.35496.160965-.14153.420504-.146717.112791-.0023.229656.01725.11684.01829.238969.05832l.008.40265-.179495.0036-.0464-.257502-.03587-.03447q-.03554-.01749-.08058-.02508-.04504-.0076-.102045-.0065-.132195.0026-.210931.06973-.07874.06709-.07663.172604.0016.07762.04769.139788.04732.06093.158996.124218.02702.01645.149391.0686.123559.05091.208309.102606.10932.06697.169474.162833.06015.09586.06236.206226.0046.228006-.17334.372302-.177896.144296-.475032.150233-.12128.0024-.244209-.01696-.122905-.01817-.236495-.05594z"/><path d="m41.14823 25.240851q-.213495.000433-.3429.19357-.128193.191921-.127536.515802.000666.328734.129652.527412.130196.197462.338839.197039.211069-.000428.33926-.193562.129402-.19435.12875-.515805-.000674-.332373-.128442-.528627-.126555-.196257-.337623-.195829zm-.840423.70527q-.000413-.20379.06355-.366468.06396-.162677.191092-.280601.117446-.108199.261689-.161865.145454-.05488.318919-.05523.160121-.000325.29608.04792.137172.04824.251395.145056.143389.12344.218952.297965.07678.174523.0772.384378.000401.197726-.06719.362837-.06638.165109-.197145.286678-.112598.105764-.256834.163069-.144239.05609-.301934.05641-.384534.00078-.620355-.24135-.234609-.242134-.235413-.638798z"/><path d="m42.150541 26.787474.0013-.121297.149344-.01168.04046-.03837.01472-1.32456-.03964-.03562-.158764-.0139.0013-.121297 1.24693.01386-.0046.41726-.171028-.0019-.03492-.241798-.03119-.03189-.480334-.0053-.0069.618613.333566.0037.03554-.03236.02628-.181675.146769.0016-.0064.579798-.146769-.0016-.02224-.182215-.03481-.03314-.333566-.0037-.0064.579798.04202.03929.174519.01528-.0013.121297z"/><path d="m44.259271 26.816669.0037-.148213.185676-.01166.0501-.0462.0406-1.618493-.04783-.04421-.184896-.01947.0037-.148214 1.531047.0384-.01193.475766-.210463-.0053-.04518-.268086-.0316-.04083-.607676-.01524-.01814.723282.395731.0099.04258-.04194.03659-.217094.179338.0045-.01766.704015-.179339-.0045-.02562-.220137-.04046-.04254-.395731-.0099-.01978.788497.708461.01777.0368-.04802.05698-.320396.208982.0052-.01365.543944z"/><path d="m46.066114 25.195888.701967.02321-.0039.118813-.149523.0072-.02048.03209.26721.471258.338739-.443938-.02187-.03592-.135225-.02146.0039-.118813.555269.01836-.0039.118813-.154613.01431-.482644.611525.4529.765046.165013.03823-.0039.118813-.720153-.02382.0039-.118813.157079-.01544.01802-.03096-.286657-.507098-.367867.480599.01319.0417.160726.02109-.0039.118813-.573456-.01896.0039-.118813.159664-.02021.50567-.647175-.427391-.729006-.155555-.03063z"/><path d="m49.016253 26.911253q-.126615.03992-.258382.05658-.130603.01791-.266358.01256-.132119-.0052-.247333-.03889-.115262-.03247-.205183-.09186-.189394-.122799-.290691-.324674-.101248-.203086-.09188-.440658.0075-.1903.07937-.350139.07307-.159792.203863-.274818.122067-.109301.280675-.160102.159867-.05197.353803-.04432.124847.0049.249997.03293.126362.02805.253028.07918l-.01635.414539-.181815-.0072-.03923-.26741-.03227-.04376q-.05019-.02019-.09951-.03185-.0481-.01161-.09537-.01347-.25939-.01023-.419572.172833-.158922.1819-.171687.505531-.0131.332115.138276.526253.151376.194138.430158.205133.0303.0012.06812-.0034.03903-.0045.08309-.01372l.03906-.03609.0712-.297046.181815.0072z"/><path d="m49.171499 26.977522.0055-.121181.152077-.0065.04173-.03698.05956-1.323303-.03841-.03694-.150931-.01894.0055-.121181 1.251805.05634-.01751.388993-.172078-.0077-.0326-.220035-.02519-.03392-.496844-.02236-.02661.591365.323554.01456.03551-.03362.03346-.176991.14663.0066-.02591.575612-.14663-.0066-.01738-.180494-.0324-.03546-.323555-.01456-.02902.644685.579248.02607.03088-.03868.05183-.261164.170866.0077-.02002.444737z"/><path d="m51.20879 26.308391q.0024.000121.0084.0016.05555.0064.08099.0077.192634.0096.294508-.08492.103086-.09445.112927-.291936.0089-.178096-.07607-.277064-.08494-.09897-.253348-.10736l-.129635-.0065zm-.556514.736217.006-.121154.14726-.006.04676-.03654.06593-1.323-.03581-.03701-.162954-.02027.006-.121154.669981.03339q.354981.01769.510138.145662.155158.127972.142177.388453-.01304.261692-.191113.398564-.178012.13566-.485742.120325-.02908-.0014-.07142-.0048-.04228-.0045-.09783-.01095l-.02228.447058.03563.04064.17622.02214-.006.121154z"/><path d="m52.171781 25.451762 1.430494.0777-.02381.438475-.170787-.0093-.02799-.267568-.03463-.03347-.297969-.01618-.07329 1.349339.04029.04106.160374.02207-.0066.121126-.7425-.04033.0066-.121125.163032-.0045.04329-.03652.07329-1.34934-.296758-.01612-.03926.02945-.0568.262963-.170787-.0093z"/><path d="m53.609353 27.199823.007-.121102.165469-.0038.04341-.03638.07634-1.32244-.03915-.0375-.164-.02162.007-.121103.742359.04286-.007.121102-.16661.0025-.04199.03281-.07634 1.32244.03773.04106.165141.0229-.007.121103z"/><path d="m55.452602 25.760907q-.213092-.0131-.354482.171438-.140104.183407-.159985.506678-.02018.328115.09595.534571.117414.20532.325664.218127.210671.01296.35085-.171662.141464-.185753.161195-.506603.0204-.331747-.09466-.535707-.113856-.203886-.324528-.216842zm-.883449.650563q.01251-.203406.08666-.361701.07415-.158295.208499-.26792.12407-.100535.271426-.144947.148642-.04555.321779-.0349.15982.0098.292446.0666.133837.05684.241691.160704.135275.132283.19962.311248.06555.179039.05267.3885-.01214.197353-.09007.357846-.07672.160567-.214925.273601-.119078.09841-.266657.146456-.147505.04683-.304903.03715-.383809-.0236-.603804-.280199-.218784-.256522-.194436-.652439z"/><path d="m56.345045 27.36455.0079-.118617.147821-.01086.04776-.04181.087-1.31084-.03277-.03743-.155336-.02247.008-.121038.567668.03768-.0044.06657.680746 1.228066.07045-1.061503-.04165-.05018-.150334-.02457.008-.121038.565247.03752-.008.121038-.147419.0048-.0455.04439-.09824 1.480294-.277176-.0184-.769796-1.388371-.07615 1.14744.03697.04744.152353.03078-.0079.118617z"/><path d="m58.915124 26.191615-.258738.597015.436814.03093zm-.03037-.343869.260153.01842.461269 1.574652.144612.03578-.0086.121001-.669137-.04738.0086-.121001.157205-.0047.02038-.03017-.119014-.431623-.540875-.0383-.178478.408126.02318.03326.154807.0292-.0086.121001-.533615-.03779.0086-.121001.15046-.01245z"/><path d="m59.767174 27.599881.009-.120968.152202-.002.04523-.03555.09863-1.320965-.03246-.0377-.157565-.02393.009-.120967.713708.05329-.009.120967-.152113.000807-.04254.0321-.100795 1.349997.476612.03559.03443-.03757.05999-.298409.183871.01373-.03622.48508z"/><path d="m61.953398 27.698855.04424-.548263.229059.01848.01943.367473.0362.04903q.06483.02605.12902.04165.06567.01571.133644.0212.177336.01431.290058-.05543.112722-.06974.123216-.199784.0093-.115268-.05891-.210018-.06662-.09611-.233961-.19737-.02689-.01704-.08237-.04829-.199141-.112752-.295551-.20829-.09505-.09394-.141025-.206232-.04597-.112292-.03691-.224604.02099-.260093.232608-.412583.213097-.15237.529346-.126851.137435.01109.277157.04914.139842.03657.283448.100219l-.03959.490629-.218714-.01765-.02485-.318826-.0394-.04631q-.04107-.02563-.09491-.04038-.05384-.01476-.123301-.02036-.16108-.013-.265054.05893-.103974.07193-.114349.200499-.0076.09458.04085.175837.05007.0799.178114.170552.03084.02331.173256.101738.144011.07707.240732.150319.124727.09485.186121.218796.06139.123948.05054.258428-.02242.277826-.256444.431482-.234025.153657-.596086.12444-.14778-.01193-.294891-.05057-.147231-.03717-.280731-.09703z"/><path d="m63.559501 27.895951.0103-.120865.152216-.000419.04318-.03528.112494-1.319857-.0369-.03845-.150052-.02496.0103-.120866 1.248546.106416-.03307.38798-.17163-.01463-.02376-.221164-.02381-.0349-.495551-.04224-.05027.589826.322712.02751.03683-.03217.04053-.17551.146248.01246-.04893.574114-.146247-.01247-.01014-.181045-.03096-.03673-.322712-.02751-.05481.643007.57774.04924.03241-.03741.06224-.25888.170421.01453-.03781.443578z"/><path d="m65.676396 26.54859-.05675.645275q.0156.0026.03361.0055.01933.0017.05437.0049.200557.01802.303275-.05436.102717-.07237.117912-.241519.01389-.154646-.07307-.24406-.08697-.08941-.264568-.105368zm-.494736-.186941.752694.06762q.28513.02561.422868.146383.138947.120877.120279.328684-.0153.170352-.13249.268221-.117079.09666-.330775.116437.08987.03.149329.07309.06078.042.09665.10368.04522.07957.08176.255802.0181.08323.02913.123191.02866.101227.08681.145424.05946.0431.189944.05482l.03141.0028-.01064.118402q-.06974.0035-.132994.0027-.06205-.000703-.116419-.0056-.07612-.0068-.142037-.03225-.0646-.02651-.108467-.06699-.104546-.09708-.150672-.302183-.006-.02855-.0094-.04469-.05108-.217726-.126276-.289031-.07509-.07251-.234567-.08684l-.04229-.0038-.05003.55697.0364.04224.149829.02686-.01085.120817-.698326-.06273.01085-.120817.147384-.000158.04334-.03508.118518-1.319329-.03672-.03862-.145104-.02521z"/><path d="m66.595591 26.488231.679877.06463-.01148.120759-.144852-.0016-.03013.03491.303362 1.166928.505729-1.090013-.02422-.04008-.147387-.0262.01148-.12076.542211.05155-.01148.12076-.16371.01734-.69261 1.453641-.249973-.02376-.41815-1.56167-.160155-.04569z"/><path d="m68.138953 28.31026.01203-.120706.165484.0031.04489-.03453.131406-1.318107-.03755-.0391-.162956-.02844.01203-.120706.739927.07377-.01203.120706-.16657-.0044-.04332.03103-.131406 1.318108.03598.0426.164043.02976-.01203.120705z"/><path d="m70.422396 28.485056q-.12895.03158-.261523.0396-.131493.0094-.26661-.0048-.131497-.01382-.244269-.05494-.112899-.03992-.198754-.105047-.18098-.134891-.268892-.342944-.08779-.209259-.06294-.445713.0199-.189405.102036-.344217.08334-.154685.221356-.260934.128937-.101105.290521-.141452.162917-.04143.355941-.02114.124259.01306.247316.04916.124263.03623.247324.09551l-.04336.412589-.18096-.01902-.0217-.269399-.02934-.04577q-.04877-.02342-.09722-.03827-.04724-.01472-.09429-.01967-.25817-.02713-.429953.145095-.170449.171146-.204297.493255-.03474.330553.103653.534152.138388.203599.41586.232757.03016.0032.06819.0011.03924-.002.08381-.0083l.04133-.03347.09043-.291768.18096.01901z"/><path d="m70.576945 28.561373.01364-.120535.152169.0038.04414-.03407.14891-1.316245-.03582-.03946-.149305-.0291.01364-.120536 1.24513.140866-.04377.386918-.171161-.01936-.01764-.221736-.02284-.03554-.494195-.05591-.06655.588213.321829.03641.03771-.03114.04536-.174323.145848.0165-.06477.572543-.145848-.0165-.0051-.181255-.02993-.03757-.321829-.03641-.07255.641248.576159.06518.03343-.0365.06937-.257061.169955.01923-.05005.442365z"/></g><path d="m9.3347437 29.175949s20.7534293-2.16296 31.1846303-2.0449c7.20942.0816 32.61608 2.45388 32.61608 2.45388" fill="none"/><g fill="#fff" stroke-linejoin="bevel" stroke-width=".474856"><path d="m4.1891073 27.449672v1.436339h.2426799v-1.692953h-.2426799l-.2403575.175333v.257775z"/><path d="m5.1203476 28.886011q-.00116 0 .01974-.0418.020901-.04296.054574-.110309.033673-.06735.075475-.149788.041801-.08244.082442-.162561.04064-.08012.075475-.147466.035996-.06735.058057-.105664-.033673.01974-.076636.02438-.041801.0035-.097536.0012-.076636-.0023-.1346931-.02787-.056896-.02555-.098698-.06386-.041801-.03832-.069669-.08476-.027868-.04761-.045285-.09173-.016256-.04528-.024384-.0836-.00697-.03948-.00697-.06154 0-.007-.00116-.02555 0-.01858 0-.04064 0-.02322 0-.04645.00116-.02322.00348-.03948.00116-.0081.00697-.04064.00697-.03367.024384-.08012.017417-.04645.048768-.0987.031351-.05341.08128-.09986.05109-.04645.1242428-.08012.074313-.03367.1753333-.04296.1056644-.0093.1857835.01277.08128.02206.1393377.06386.058057.0418.096375.09754.038318.05573.059219.113793.022062.0569.029029.11147.00697.05341.00232.09173-.00697.0569-.015095.102181-.00813.04412-.01974.08476-.01045.04064-.024384.08012-.013934.03948-.032512.08592-.00464.01277-.025545.05574-.01974.04296-.05109.105664-.03019.06154-.067347.138176-.035996.07548-.074313.152111-.089408.181139-.1997174.404079zm.052252-1.226172q0 .04528.00464.09986.00464.05457.026706.103342.023223.04761.071991.08244.048768.03367.1370154.03832.044124.0023.080119-.01045.035996-.01393.063863-.03599.027868-.02206.047607-.04993.020901-.02787.033673-.05457.013934-.02787.01974-.05109.00581-.02322.00581-.03716-.00116-.02903-.00232-.06502 0-.036-.00697-.07315-.00581-.03716-.020901-.07083-.015095-.03483-.042962-.06038-.027868-.02555-.071991-.03948-.042962-.0151-.1079867-.01161-.071991.0035-.1184371.036-.045285.03251-.071991.07199-.026706.03948-.037157.07664-.01045.03716-.01045.05109z"/><path d="m6.131707 27.68074h.2426799v-.245002h.449364l-.5724457 1.450273h.2705474l.5736069-1.450273v-.24268h-.9637525z"/><path d="m8.0348278 27.175641q.00116 0-.011612.02555-.011611.02438-.032512.06735-.020901.04296-.048768.0987-.027868.05574-.059219.117276-.03019.06154-.062702.124243-.031351.0627-.061541.119598-.029029.0569-.053413.103342-.024384.04645-.04064.07431.033673-.01974.075475-.02322.042962-.0046.098698-.0023.080119.0023.1393377.02787.06038.02554.1033422.06386.042962.03832.07083.08592.029029.04645.045285.09173.016256.04412.022062.0836.00697.03832.00697.06038 0 .007 0 .02555 0 .01858 0 .0418 0 .02206-.00116.04528 0 .02322-.00116.03948-.00116.0081-.00813.04296-.00581.03367-.023223.08128-.016256.04645-.047607.10102-.031351.05341-.082441.102181-.05109.04761-.1242428.08244-.073152.03484-.1741721.04296-.1056644.0093-.1869447-.01393-.08128-.02322-.1404989-.06619-.059219-.04296-.098698-.0987-.039479-.0569-.062702-.116115-.022062-.05922-.03019-.113792-.00697-.05457-.00232-.09289.00697-.0569.015095-.10102.00813-.04528.018578-.08592.011611-.04064.025545-.08012.013934-.03948.032512-.08592.00464-.01161.025545-.05457.020901-.04412.05109-.107986.031351-.06386.069669-.140499.038318-.07664.076636-.155594.090569-.183461.2032009-.409885zm-.048768 1.238944q0-.04412-.00348-.09754-.00348-.05341-.026706-.10102-.022062-.04877-.073152-.0836-.05109-.03483-.1451434-.0418-.044124-.0035-.080119.0093-.035996.01277-.063863.03484-.027868.02206-.048768.05109-.01974.02787-.033673.05573-.012773.02787-.018578.05225-.00581.02322-.00581.03599 0 .02903.00116.06503.00116.03483.00697.07083.00697.03483.022062.06851.015095.03251.042962.05806.027868.02554.07083.0418.044124.01626.1091479.01626.052252.0012.090569-.01277.039479-.0151.066185-.03716.027868-.02322.045285-.05109.017417-.02787.026706-.05457.01045-.02671.013934-.04761.00348-.02206.00348-.03251z"/></g><g fill="#fff" stroke-linejoin="bevel" stroke-width=".474856"><path d="m74.313277 29.103754h.964913v-.24268h-.646759l.544578-.682755q.102181-.130048.102181-.297253-.0023-.209007-.140499-.344861-.135854-.137015-.35415-.139338-.195072.0023-.328604.137016-.132371.138176-.14166.349505h.241518q.01277-.116115.08128-.179978.06618-.06386.166044-.06386.112631.0023.174172.07315.05922.07083.05922.166044 0 .036-.0093.07664-.01393.04296-.05225.09289l-.660693.826737z"/><path d="m76.186208 28.616072q-.007.256614-.238036.258936-.232229-.0023-.236874-.258936v-.717589q.0046-.254291.236874-.258936.231069.0046.238036.258936zm-.71759.01393q.0023.233391.149788.359956.138177.125404.329766.127726.197395-.0023.335572-.127726.140499-.126565.145143-.359956v-.746618q-.0046-.234552-.145143-.361117-.138177-.125404-.335572-.125404-.191589 0-.329766.125404-.147465.126565-.149788.361117z"/><path d="m76.980432 27.667415v1.436339h.24268v-1.692953h-.24268l-.240357.175333v.257775z"/><path d="m78.543337 27.393384q.0012 0-.01161.02554-.01161.02438-.03251.06735-.0209.04296-.04877.0987-.02787.05573-.05922.117276-.03019.06154-.0627.124243-.03135.0627-.06154.119598-.02903.0569-.05341.103342-.02438.04645-.04064.07431.03367-.01974.07547-.02322.04296-.0046.0987-.0023.08012.0023.139338.02787.06038.02555.103342.06386.04296.03832.07083.08592.02903.04645.04529.09173.01626.04412.02206.0836.007.03832.007.06038 0 .007 0 .02554 0 .01858 0 .0418 0 .02206-.0012.04528 0 .02322-.0012.03948-.0012.0081-.0081.04296-.0058.03367-.02322.08128-.01626.04645-.04761.10102-.03135.05341-.08244.102181-.05109.04761-.124242.08244-.07315.03483-.174172.04296-.105665.0093-.186945-.01393-.08128-.02322-.140499-.06619-.05922-.04296-.0987-.0987-.03948-.0569-.0627-.116115-.02206-.05922-.03019-.113792-.007-.05457-.0023-.09289.007-.0569.0151-.10102.0081-.04528.01858-.08592.01161-.04064.02555-.08012.01393-.03948.03251-.08593.0046-.01161.02554-.05457.0209-.04412.05109-.107987.03135-.06386.06967-.140498.03832-.07664.07663-.155594.09057-.183461.203201-.409885zm-.04877 1.238944q0-.04412-.0035-.09754-.0035-.05341-.02671-.10102-.02206-.04877-.07315-.0836-.05109-.03483-.145144-.0418-.04412-.0035-.08012.0093-.036.01277-.06386.03484-.02787.02206-.04877.05109-.01974.02787-.03367.05573-.01277.02787-.01858.05225-.0058.02322-.0058.03599 0 .02903.0012.06502.0012.03483.007.07083.007.03483.02206.06851.0151.03251.04296.05806.02787.02555.07083.0418.04412.01626.109147.01626.05225.0012.09057-.01277.03948-.01509.06618-.03716.02787-.02322.04529-.05109.01742-.02787.02671-.05457.01045-.02671.01393-.04761.0035-.02206.0035-.03251z"/></g><path d="m9.8154957 28.935264c7.0548883-1.022449 22.1866833-2.092117 30.8779143-2.147141 8.836198-.05594 24.184107 1.045421 32.207095 2.044894" fill="none"/></svg>