<svg height="218.11" preserveAspectRatio="xMidYMid" viewBox="0 0 527.54 163.58" width="703.38" xmlns="http://www.w3.org/2000/svg" zoomAndPan="magnify"><g fill="#222"><path d="m285.41 99.778c5.2461-12.336 10.02-23.586 14.805-34.836.89844-2.1133 1.3828-4.3555 4.5938-4.4219 3.207-.0664 3.7891 2.1289 4.6992 4.2695 4.3477 10.188 8.7109 20.375 13.09 30.555.49218 1.1406.57031 2.5859 2.2109 3.4648 4.0977-11.238 8.3203-22.336 12.145-33.57 1.3281-3.8984 3.1211-5.5391 7.4609-5.3789 9.418.33984 9.418.0859 5.875 8.9141-6.6289 16.5-13.27 32.996-19.914 49.492-.77344 1.9219-1.0195 4.4062-4.0703 4.3984-2.8945 0-3.4609-2.3438-4.3867-4.2305-5-10.215-9.9336-20.461-14.902-30.695-.60547-1.2617-1.3008-2.4883-2.2305-4.2305-5.8867 12.129-11.48 23.637-17.059 35.156-.95312 1.9609-1.5976 4.168-4.5039 3.9922-2.7383-.16797-3.0117-2.418-3.7461-4.2383-7.2422-17.973-14.426-35.977-21.785-53.914-1.5234-3.6992-.48828-4.6523 3.207-4.5703 12.148.26562 9.1211-1.4531 13.176 8.9766 3.8398 9.9062 7.3438 19.945 11.336 30.863"/><path d="m393.31 99.106c4.0273-8.5352 7.6875-16.281 11.336-24.027 1.0586-2.25 2.082-4.5039 3.1289-6.75 4.1758-8.8672 5.957-9.7695 15.762-8.3594 2.6328.38282 2.7188 1.5391 1.7031 3.5781-2.7148 5.4961-5.2734 11.062-8.0312 16.535-9.418 18.617-17.574 37.844-28.25 55.805-4.6992 7.9141-9.6836 15.621-15.734 22.609-2.2812 2.6445-4.0976 3.2109-6.75.44531-7.1172-7.418-6.8438-5.5391-.83984-13.066 7.2383-9.0312 13.48-18.707 18.727-29.031 1.3906-2.7383 1.4453-4.9062 0-7.6953-7.8242-14.676-15.438-29.461-23.102-44.215-2.332-4.5-2.0039-4.457 2.8047-5.082 7.4375-.98829 11.59 1.5703 14.484 8.7109 4.0938 10.109 9.4531 19.707 14.758 30.484"/><path d="m444.27 96.45c0-6.4258-.17969-12.855.0664-19.273.125-3.2422-.77344-4.4023-4.1367-4.2461-2.0977.10156-5.3594 1.4531-6.2266-1.3047-.53516-1.6133-.77735-3.2656-.72657-4.9648.0508-1.6992.39063-3.3359 1.0234-4.9141 1.0781-2.4531 3.793-1.9024 5.8867-1.707 3.2656.30859 4.4062-.78907 4.1797-4.1367-.23438-4.0703-.21875-8.1445.043-12.215.64453-11.699 8.0273-19.844 19.602-21.91 3.543-.6836 7.1055-.78516 10.684-.30469 3.5781.48047 6.9883 1.5156 10.227 3.1133 2.4062 1.1758 3.3125 2.7148 1.8125 5.2188-.51563.88672-.92188 1.8203-1.2266 2.8008-1.293 4.0625-3.2148 5.6094-7.6484 3.2656-4.1211-2.1758-8.7774-2.082-13.16-.0859-3.918 1.7852-6.207 4.8398-6.3945 9.1797-.17578 3.9336 0 7.8906-.15235 11.824-.10937 2.4375.67188 3.4023 3.1992 3.2656 3.3555-.17187 6.7227.0508 10.086-.0664 2.418-.0859 3.4688.8711 3.4609 3.3047-.043 11.984.86719 9.625-8.8242 9.7617-7.8789.10938-7.8789 0-7.8789 7.75 0 12.27-.0586 24.535 0 36.801 0 3.1562-.27734 5.2539-4.3906 5.1875-7.6758-.12109-9.3711-.72265-9.4805-5.2812-.17578-7.0039-.043-14.016-.0508-21.051"/><path d="m224.51 123.57c-4.0117.0586-7.9531-.4336-11.828-1.4805-3.875-1.0469-7.5312-2.6055-10.973-4.6719-2.6445-1.5391-3.6641-3.2383-1.4492-5.8945.57032-.67578 1.0352-1.4141 1.3984-2.2227 1.6719-3.8516 3.7891-4.6133 7.75-2.3711 2.5781 1.4492 5.3281 2.4219 8.2422 2.9219s5.832.49218 8.7422-.0195c2.8398-.46484 5.5352-1.4531 5.8828-4.9062.33203-3.2578-2.0586-4.668-4.5781-5.625-2.5195-.95703-5.2812-1.707-7.9688-2.4453-4.2422-1.168-8.3789-2.5625-12.074-5.082-11.812-7.9492-10.906-23.336 1.8477-29.758 7.1289-3.5703 14.652-3.5859 22.246-1.6992 1.8398.47266 3.6367 1.082 5.3867 1.8281 8.8594 3.7539 9.293 6.1484 2.6797 13.277-1.4492 1.5312-2.7227 1.2773-4.2852.51562-3.1602-1.5898-6.4883-2.6484-9.9844-3.1719-2.7891-.38672-5.5547-.37891-8.1914.72656-1.8242.77344-3.3008 1.9883-3.5352 4.1055-.25391 2.2344 1.2266 3.4844 2.9492 4.4414 2.6211 1.3281 5.3594 2.3242 8.2226 2.9844 5.2227 1.4531 10.371 3.0977 14.914 6.1758 11.008 7.4609 10.703 21.051-.65234 28.066-2.2188 1.3672-4.5781 2.4102-7.082 3.1289-2.5039.71485-5.0547 1.082-7.6602 1.0977"/><path d="m496.25 91.302c0-5.3398-.125-9.7266.0508-14.102.10938-2.6719-.4375-3.9922-3.5273-3.832-2.0664.10938-5.0117 1.3359-5.9336-1.9883-.82031-2.9844.97266-4.8633 3.1289-6.6484 3.3477-2.7422 6.3047-5.8594 8.8711-9.3438 2.5625-3.4883 4.6602-7.2422 6.2812-11.254.67579-1.6562 1.0312-4.125 3.6797-3.4414 2.457.625 1.3633 2.9023 1.4492 4.4766.13672 4.0859.11719 8.1797 0 12.266-.043 1.8828.65234 2.6133 2.5273 2.5625 3.0703-.0859 6.1445 0 9.207 0 1.7305 0 3.4922.23437 3.6211 2.2734.22656 3.0547.22656 6.1094 0 9.168-.12891 1.8203-1.7539 2.0586-3.332 2.0547-3.0625 0-6.1484.15234-9.1992-.0586-2.3945-.16016-2.9414.78906-2.8945 2.9805.10547 8.3281-.0508 16.652.10547 24.969.14062 7.2578 2.7383 9.3476 9.9375 8.5078 5.6719-.66797 5.5352-.64063 7.1523 7.1719.94922 4.5938-2.5586 4.6719-5.1523 5.3633-2.582.63282-5.207.92188-7.8672.8711-10.582 0-15.707-4.5391-17.527-15.039-1.0274-5.9609-.32422-11.949-.60157-16.957"/></g><g fill="#18a0fb"><path d="m82.286 69.165c.89453-.008 1.7812.0703 2.6602.23437.875.16406 1.7305.41406 2.5586.74609.83203.33204 1.6211.74219 2.3711 1.2305s1.4414 1.043 2.0859 1.668c.64062.625 1.2148 1.3047 1.7226 2.043.50782.73438.9375 1.5156 1.293 2.3359s.62891 1.668.82032 2.543c.1875.875.29296 1.7617.30859 2.6562.0664 7.2578-6.4375 13.652-13.805 13.527-7.2422-.12109-13.27-6.5898-13.203-14.129.0547-7.2578 5.793-12.84 13.188-12.855"/><path d="m112.88 104.38c0 .73047-.0703 1.4531-.21094 2.1719-.14453.71484-.35156 1.4141-.6289 2.0898-.28125.67578-.6211 1.3164-1.0234 1.9258-.40625.60938-.86328 1.1719-1.3789 1.6914-.51562.51953-1.0742.98047-1.6797 1.3906-.60547.40625-1.2461.75391-1.918 1.0352-.67578.28125-1.3672.49609-2.082.64063-.71485.14453-1.4375.21875-2.168.22265-6.3516.0742-11.59-5.0352-11.59-11.219.0234-.73047.11719-1.4531.27735-2.1641.16015-.71484.38281-1.4023.67187-2.0742.28906-.67187.63672-1.3086 1.0469-1.9141.40625-.60547.86718-1.1641 1.3828-1.6836.51172-.51953 1.0703-.98437 1.668-1.3984.60156-.41407 1.2344-.76563 1.9023-1.0625.66406-.29297 1.3555-.52344 2.0625-.69141.71094-.16406 1.4297-.26172 2.1563-.29297.75 0 1.4922.0742 2.2266.21875.73438.14453 1.4453.35938 2.1367.64063.69532.28515 1.3516.63281 1.9766 1.0469s1.2031.88281 1.7383 1.4062c.53125.52735 1.0078 1.1016 1.4297 1.7188.42188.6211.78125 1.2734 1.0742 1.9649.29688.6875.51953 1.3984.67578 2.1328.15625.73437.24219 1.4726.25391 2.2226"/><path d="m72.661 62.38c-.008.73047-.0898 1.4531-.23828 2.168-.15235.71484-.36719 1.4102-.65235 2.082-.28906.67187-.63672 1.3086-1.0469 1.9141-.41016.60547-.875 1.1641-1.3906 1.6758-.51953.51172-1.0859.96875-1.6914 1.375-.60938.40235-1.25.74219-1.9258 1.0156-.67579.27734-1.3711.48828-2.0859.6289-.71485.14063-1.4375.21094-2.168.20704-6.0273-.10157-11.531-5.6172-11.508-11.539.01953-5.9219 5.3672-11.031 11.371-10.961.75 0 1.4883.0742 2.2227.22265.73437.14844 1.4492.36328 2.1406.65235.69141.28906 1.3477.64453 1.9688 1.0625.6211.41796 1.1953.89453 1.7227 1.4297.52734.53125.99609 1.1133 1.4062 1.7383.41406.625.76172 1.2891 1.043 1.9844s.49218 1.4102.63281 2.1484c.14062.73828.20703 1.4805.19922 2.2305"/><path d="m59.732 112.23c-6.4336.0508-11.59-4.9219-11.59-11.113 0-5.8047 5.3594-11.309 11.117-11.488 5.7617-.17968 11.496 5.4727 11.531 11.496.004.73047-.0664 1.4531-.21093 2.168-.14063.71875-.34766 1.4141-.62891 2.0859-.27734.67578-.61719 1.3164-1.0234 1.9219s-.86328 1.168-1.3789 1.6836c-.51563.51563-1.0742.97656-1.6836 1.3828-.60547.40235-1.2422.7461-1.918 1.0234-.67187.28125-1.3672.48828-2.0781.62891-.71484.14453-1.4375.21094-2.1641.21094"/><path d="m102.06 49.93c.72657 0 1.4492.0664 2.1602.20703.71484.14063 1.4062.35156 2.0781.62891.66796.27734 1.3086.62109 1.9102 1.0273.60547.40235 1.1641.86328 1.6758 1.3789.51172.51953.96875 1.0781 1.3711 1.6875.39843.60547.73828 1.2461 1.0117 1.9219.27343.67188.48046 1.3672.61718 2.082.13672.71485.19922 1.4375.19532 2.1641-.004.75-.0781 1.4922-.22657 2.2266-.14453.73437-.36328 1.4453-.65234 2.1367-.28516.6914-.63672 1.3476-1.0547 1.9688-.41406.625-.88672 1.1992-1.418 1.7266-.52734.53125-1.1016 1.0039-1.7266 1.418-.62109.41406-1.2773.76562-1.9688 1.0508-.6875.28906-1.4023.50391-2.1328.64844-.73438.14844-1.4766.21875-2.2227.21875-5.793 0-11.27-5.3906-11.262-11.184.008-5.793 5.6758-11.344 11.645-11.309"/><path d="m35.669 83.145c0-.58203.05078-1.1562.16016-1.7266.10547-.57031.26562-1.125.48047-1.6641.21094-.54297.47266-1.0586.78125-1.5469.30859-.49218.66016-.94921 1.0586-1.3711.39453-.42578.82812-.80859 1.293-1.1484.46875-.34375.96484-.63672 1.4883-.88672.52344-.24609 1.0664-.4414 1.6289-.58593.55859-.14453 1.1289-.23828 1.707-.27344 4.6562-.21094 8.8164 3.8516 8.9805 8.7891.01953.58203-.01953 1.1562-.11328 1.7305-.09766.57422-.24609 1.1328-.45312 1.6758s-.46484 1.0625-.77344 1.5547c-.30469.49219-.66016.94922-1.0586 1.375-.39844.42187-.83594.80078-1.3086 1.1367s-.97266.625-1.5039.85937c-.53125.23828-1.0781.41797-1.6445.54688-.56641.1289-1.1406.19922-1.7188.21484-.58203.0195-1.1602-.0195-1.7344-.11719-.57812-.0977-1.1367-.2539-1.6797-.46093-.54297-.21094-1.0625-.47266-1.5508-.78907-.49219-.3164-.94531-.67578-1.3672-1.082-.41797-.40625-.78906-.85156-1.1211-1.332-.32812-.48047-.60547-.99219-.83594-1.5273-.22656-.53906-.39844-1.0938-.51172-1.668-.11719-.57031-.17578-1.1484-.17578-1.7344"/><path d="m43.283 51.294c-4.7656.0508-9.0625-4.1055-9.0625-8.7812 0-4.6719 4.1953-8.9844 8.8242-9.0938 4.6289-.10937 8.8945 4.1211 9.0234 8.8555.12891 4.7305-4.0352 8.9688-8.7852 9.0195"/><path d="m109.28 83.071c-.043-5.2617 3.5273-9.1094 8.4688-9.1094 4.6133 0 9.0391 4.3047 9.1055 8.8477.0547 4.668-4.0703 8.8789-8.8398 9.0156-4.9961.14453-8.6914-3.5547-8.7344-8.7539"/><path d="m121.77 51.739c-4.9766 0-8.6289-3.5-8.7422-8.3906-.11718-5.082 3.5781-9.0742 8.5312-9.1445.58594-.0234 1.1641.0117 1.7422.10937.57813.0937 1.1367.2461 1.6836.45704.54687.20703 1.0664.46875 1.5625.78515.49218.3125.94921.67188 1.3711 1.0781.42187.41015.79687.85156 1.1289 1.3359.33203.48047.60937.99219.83984 1.5312.22656.53907.39844 1.0977.51562 1.6719.11719.57422.17579 1.1523.17579 1.7383.0195.58594-.0234 1.168-.1211 1.7422-.10156.57812-.25781 1.1367-.47265 1.6836-.21485.54297-.48047 1.0586-.80079 1.5469-.32031.48828-.6875.9414-1.1016 1.3555-.41406.41407-.86328.78125-1.3516 1.1016-.48828.32031-1.0039.58984-1.5469.80468-.54296.21485-1.1016.3711-1.6758.47266-.57422.0977-1.1562.14063-1.7383.12109"/><path d="m79.54 111.19c5.1524 0 8.8906 3.7695 8.7812 8.7969-.008.58594-.0742 1.1641-.19922 1.7383-.125.57031-.30468 1.125-.53906 1.6602-.23437.53515-.51953 1.043-.85547 1.5195-.33593.48047-.71875.92187-1.1406 1.3242-.42578.39843-.88672.75781-1.3828 1.0664-.49219.3086-1.0156.56641-1.5625.76953-.54688.20703-1.1094.35547-1.6836.44532-.57812.0937-1.1602.125-1.7422.10156-4.9102-.0742-8.3867-3.6289-8.4453-8.6602-.0586-5.1445 3.5625-8.7461 8.7695-8.7109"/><path d="m91.036 46.845c-.004.58594-.0664 1.1641-.1836 1.7344-.11718.57031-.28906 1.125-.51562 1.6641s-.5 1.0508-.82422 1.5352c-.32422.48437-.69531.93359-1.1055 1.3438-.41406.41406-.85937.78515-1.3438 1.1094-.48437.32422-.99219.60156-1.5312.82813-.53516.22265-1.0898.39843-1.6602.51562-.57032.11719-1.1484.17969-1.7305.1836-.5625-.0234-1.1172-.10157-1.6641-.23047-.54687-.12891-1.0781-.3086-1.5938-.53516-.51562-.23047-1.0039-.50391-1.4688-.82422-.46484-.3164-.89453-.67578-1.293-1.0781-.39454-.39844-.75391-.83203-1.0703-1.2969-.3164-.46875-.58593-.95703-.8125-1.4766-.22656-.51563-.40234-1.0469-.52734-1.5977-.12891-.55078-.20313-1.1055-.22656-1.668-.0625-4.8203 4-9.1094 8.6914-9.168 4.6953-.0586 8.832 4.1289 8.8594 8.9844"/><path d="m33.908 120.43c.04687-4.9727 3.5-8.3398 8.5703-8.3711 5.1992 0 9.0391 3.6289 8.9727 8.5859-.01172.58594-.08594 1.1602-.21094 1.7305-.125.56641-.30469 1.1211-.53906 1.6562-.23047.53125-.51172 1.0391-.84375 1.5195-.33203.48047-.70312.92188-1.1211 1.332-.41406.40625-.86719.76953-1.3516 1.0898s-.99609.59375-1.5352.8125c-.53906.22266-1.0938.39062-1.6641.50391-.57031.11328-1.1484.17187-1.7305.17578-5.0117 0-8.5977-3.8086-8.5469-9.0352"/><path d="m121.05 129.75c-5.168 0-8.8398-3.7539-8.6953-8.8633.0352-.5625.1211-1.1172.25782-1.6641.13671-.54688.32421-1.0781.55859-1.5898.23437-.51172.51562-.9961.83984-1.457.32422-.46093.6875-.88671 1.0938-1.2812.40235-.39062.83985-.74218 1.3086-1.0547s.96093-.57813 1.4805-.79688c.51953-.21875 1.0508-.38672 1.6016-.50781s1.1055-.19141 1.668-.20703c4.6445 0 8.9961 4.3125 9.0312 8.9141.0391 4.7305-4.0274 8.5117-9.1524 8.5078"/><path d="m110.14 134.84c0 3.4023-3.2383 6.7734-6.6289 6.8867-3.3906.11719-6.8438-3.1484-6.9375-6.5312s3.4102-7.0039 6.9688-7.082c.4336.004.86719.0547 1.293.14453.42578.0898.83985.22266 1.2422.39453.39844.16797.78125.37891 1.1406.625.35938.24609.69532.52344 1 .83594.30469.3125.57813.65234.82032 1.0156.23828.36328.4414.75.60547 1.1562.16406.40235.28906.82032.37109 1.25.0859.42578.125.85938.125 1.2969"/><path d="m146.83 25.782c-.0195.4375-.082.8711-.18359 1.2969-.10547.42578-.2461.83594-.42578 1.2344-.1836.39844-.39844.77735-.65235 1.1328-.2539.35547-.53906.68359-.85547.98828-.3164.30078-.66015.57031-1.0273.80469-.37109.23437-.75781.43359-1.1641.59375-.40625.16406-.82422.28515-1.2539.36328-.42969.082-.85937.12109-1.2969.12109-.45313-.0273-.89844-.0977-1.3359-.21094-.44141-.10937-.86328-.26172-1.2734-.45703-.41015-.1914-.79687-.42187-1.1641-.6875-.36719-.26953-.70313-.57031-1.0117-.89844-.30859-.33203-.58594-.6914-.82422-1.0742-.24219-.38672-.44531-.78907-.60937-1.2109-.16407-.42578-.28516-.85938-.36719-1.3047-.082-.44531-.12109-.89844-.11328-1.3516.0312-.41797.10156-.82813.21094-1.2344.10546-.40234.25-.79687.42968-1.1758.17969-.3789.39063-.73828.63282-1.0781.24609-.33985.51953-.65235.82031-.94532.30469-.28906.6289-.55078.97656-.78125.35156-.22656.71875-.42578 1.1055-.58984.38281-.16016.78125-.28906 1.1875-.37891.41016-.0898.82422-.14453 1.2422-.16015 3.6836.043 7.0391 3.4062 6.9726 7.0039"/><path d="m111.02 28.731c.082 3.4531-3.1875 6.8594-6.5703 6.8281-3.6211 0-7.0156-3.4609-6.9805-7.0547.0195-.41797.0781-.83203.17578-1.2383.0977-.40625.23047-.80469.39844-1.1875s.36719-.74609.60547-1.0938c.23437-.34766.49609-.66797.78906-.96875.29297-.29688.61328-.56641.95313-.80859.34375-.23829.70312-.44532 1.0859-.6211.37891-.17578.76953-.3125 1.1758-.41797.40625-.10156.81641-.16797 1.2344-.19531.45312-.0117.90234.0195 1.3516.0977.44922.0781.88281.19922 1.3086.35937.42578.16406.82812.36719 1.2148.60938.38281.24218.74219.51953 1.0742.83203.32812.3125.625.65234.89062 1.0234.26563.37109.49219.76171.67578 1.1797.1875.41407.33594.84375.4375 1.2852.10547.44531.16407.89453.17969 1.3477"/><path d="m140.97 103.97c0 3.4727-3.5664 6.9844-7.043 6.9062-.41406-.0234-.82031-.082-1.2227-.17969-.40625-.10156-.79297-.23828-1.1719-.41015-.375-.17188-.73438-.38282-1.0703-.6211-.33593-.24219-.64843-.51562-.93359-.8164-.28516-.30079-.53906-.625-.76562-.97657-.22266-.35156-.41016-.71875-.56641-1.1055-.15234-.38281-.26563-.78125-.34375-1.1875-.0781-.41015-.11719-.82031-.11719-1.2383-.0195-.4414.004-.8789.0703-1.3125.0664-.4375.17579-.86328.32813-1.2773.14844-.41406.33984-.80859.57031-1.1836s.4961-.72657.79688-1.0469c.29687-.32422.625-.61328.98437-.87109.35547-.25782.73438-.47657 1.1367-.66016.40234-.17969.81641-.32031 1.2461-.41797.42969-.10156.86329-.15625 1.3008-.16797.4414-.0117.8789.0195 1.3125.0977.43359.0742.85546.19141 1.2656.35156.41016.16016.80078.35938 1.1719.59766.37109.23437.71484.50781 1.0312.8164.3164.30469.59765.64063.84765 1.0039.25.36328.46094.74609.63672 1.1523.17188.40235.30469.82422.39453 1.2539.0898.43359.13672.86719.14063 1.3086"/><path d="m28.642 96.325c.45312.008.89844.0586 1.3398.15625.44141.0937.87109.23047 1.2852.41406.41406.17969.80859.39844 1.1758.66016.37109.25781.71484.55078 1.0273.875.3125.32813.58984.68359.83203 1.0625.24609.38281.44531.78516.60938 1.207.16406.42188.28516.85547.36328 1.3047.07422.44531.10938.89453.09766 1.3477-.17969 3.707-3.1094 6.2969-6.9609 6.1602-.43359-.0156-.85938-.0742-1.2773-.17187-.42188-.0977-.83203-.23438-1.2266-.41016s-.76953-.38672-1.1211-.63672c-.35547-.24609-.68359-.52734-.98438-.83594-.30078-.3125-.57031-.64843-.80469-1.0117-.23828-.36329-.4375-.74219-.60156-1.1445-.16406-.40234-.28516-.8125-.37109-1.2383-.08594-.42578-.12891-.85156-.13281-1.2852.01563-.4336.07031-.86328.16797-1.2852.09375-.42187.23047-.83203.41016-1.2266.17578-.39844.39062-.77344.64062-1.125.25-.35547.53125-.67969.84375-.98047s.65234-.56641 1.0195-.79688c.36328-.23437.74609-.42968 1.1523-.58593.40234-.15625.81641-.27344 1.2422-.35157.42578-.0742.85547-.10937 1.2891-.10156"/><path d="m67.396 29.747c-.0156.45312-.0742.90234-.17968 1.3438-.10157.4414-.2461.87109-.42969 1.2852-.1875.41407-.41016.8086-.67188 1.1797-.25781.3711-.55468.71485-.8789 1.0274-.32813.3164-.6836.59375-1.0664.83984-.37891.24609-.78125.45312-1.2031.62109-.42188.16797-.85547.29297-1.3008.375-.44531.0859-.89453.125-1.3476.1211-.41406-.0273-.82031-.0898-1.2227-.19141-.40234-.10547-.79297-.24219-1.168-.42187-.375-.17579-.73047-.38672-1.0703-.62891-.33594-.24219-.64453-.51563-.92969-.82031-.28516-.30078-.53906-.62891-.76172-.98047s-.41016-.71875-.56641-1.1055c-.15234-.38672-.26953-.78125-.34766-1.1914-.07813-.40625-.11719-.82031-.11719-1.2344-.01563-.45703.01953-.90625.09766-1.3555s.19922-.88281.36328-1.3086c.16797-.42188.37109-.82813.61719-1.2109.24609-.37891.52734-.73438.84375-1.0625.31641-.32422.66406-.61719 1.0391-.8711.375-.25781.76953-.47656 1.1875-.65234s.85156-.3125 1.2969-.40234c.44531-.0898.89453-.13672 1.3476-.13672.4336.0156.86328.0703 1.2852.16797.42578.0977.83594.23437 1.2305.41015.39844.17969.77734.39063 1.1328.64063s.68359.53125.98438.84375c.30078.3164.57031.65625.80468 1.0195.23828.36719.4375.75.59766 1.1562.16016.40234.28516.82031.36328 1.2461.082.42969.12109.85938.12109 1.2969"/><path d="m24.826 145.11c-.45312-.008-.89844-.0586-1.3398-.15234-.44531-.0977-.87109-.23828-1.2852-.41797-.41406-.18359-.80859-.40625-1.1758-.66797-.37109-.25781-.71094-.55469-1.0234-.88281-.3125-.32813-.58984-.6836-.82812-1.0703-.24219-.38282-.44141-.78907-.60156-1.2109-.16016-.42578-.27344-.85938-.34766-1.3086-.07422-.44531-.10156-.89843-.08203-1.3516.0039-.43359.05078-.86328.14453-1.2852.08984-.42579.22266-.83594.39453-1.2344s.38281-.77344.62891-1.1328c.25-.35547.52734-.6836.84375-.98047.3125-.30078.65234-.56641 1.0156-.80078.36719-.23047.75-.42578 1.1562-.58203.40234-.15235.82031-.26953 1.2461-.33985.42578-.0742.85938-.10156 1.2891-.0898.43359.0273.85938.0898 1.2812.19531.42188.10547.82812.25 1.2227.4336.39063.17968.76563.39843 1.1172.64843.35156.25391.67969.53516.98047.85157.29688.3125.56641.65234.80078 1.0156.23828.36328.4375.74609.60156 1.1484.16406.40234.28906.8164.37891 1.2422.08594.42578.13281.85546.13672 1.2891.0039.4375-.03516.86719-.11719 1.2969-.08203.42969-.20703.84375-.37109 1.25-.16016.40235-.36328.78907-.60156 1.1524-.23828.36718-.51172.70312-.8125 1.0156-.30469.3125-.63672.58985-.99609.83594s-.73828.45703-1.1406.62891c-.39844.17187-.8125.30468-1.2383.39453-.42578.0898-.85547.14062-1.293.14843"/><path d="m138.86 145.46c-.41797 0-.83203-.0391-1.2422-.11719-.41015-.082-.8125-.19922-1.1992-.35547s-.75781-.35156-1.1094-.57812-.67578-.48828-.97656-.77734c-.30079-.29297-.57422-.60938-.8125-.95313-.24219-.34375-.44532-.70703-.61719-1.0898-.17188-.38282-.30469-.77735-.39844-1.1875-.0937-.40625-.14844-.82032-.16406-1.2422-.004-.45313.0352-.90625.11719-1.3516.0859-.44922.21093-.88282.38281-1.3047.17187-.42188.38281-.82422.63281-1.2031.25391-.3789.53906-.73046.85938-1.0547.32031-.32032.67187-.60547 1.0508-.85938.3789-.25.77734-.46484 1.1992-.63281.42187-.17188.85546-.30078 1.3047-.38672.44532-.082.89453-.12109 1.3516-.11328.41796 0 .83203.0391 1.2422.11719.41016.082.8125.19922 1.1992.35547s.75781.34765 1.1094.57812c.35156.22656.67578.48828.97656.77734.30078.29297.57422.60938.8125.95313.24219.34375.44531.70703.61719 1.0898.16797.38282.30078.77735.39843 1.1875.0937.40625.14844.82032.16016 1.2383.0117.46094-.0234.91407-.10547 1.3672-.082.44922-.21094.88672-.38281 1.3125-.16797.42578-.38281.82813-.63281 1.2109-.25391.38281-.54297.73437-.86719 1.0586-.32422.32032-.67969.60938-1.0625.85938s-.78516.46094-1.2109.6289c-.42578.17188-.86328.29297-1.3125.375-.45312.0781-.90625.11329-1.3633.0977"/><path d="m29.208 53.356c3.5273.0742 6.5195 3 6.4102 6.3008-.01953.45313-.08594.90235-.19141 1.3438-.10937.44141-.25391.86719-.44531 1.2812-.1875.41407-.41406.80469-.67578 1.1719-.26562.37109-.55859.71484-.89062 1.0273-.32812.3125-.68359.58985-1.0625.83594-.38281.24219-.78516.44922-1.207.61719-.42187.16797-.85547.29297-1.3008.3789-.44531.082-.89453.125-1.3477.1211-.42969-.0273-.85938-.0977-1.2773-.20703-.41797-.10938-.82422-.25782-1.2148-.44141-.39063-.1875-.76172-.41016-1.1133-.66797-.34766-.25781-.66797-.54687-.96484-.86328-.29297-.32031-.55469-.66406-.78516-1.0312-.22656-.37109-.42188-.75781-.57422-1.1641-.15625-.40235-.27344-.82032-.35156-1.2461-.07422-.42968-.11328-.85937-.10547-1.293.19531-3.5586 3.293-6.2422 7.0977-6.1641"/><path d="m32.322 24.266c-.09375 3.8242-3.2227 6.6133-7.2422 6.4531-3.7148-.14453-6.0781-2.7461-5.9961-6.582.01563-.45703.07813-.90234.1875-1.3438.10547-.44531.25391-.87109.44531-1.2812.19141-.41406.42188-.80468.6875-1.1719.26953-.36719.57031-.70313.90234-1.0117.33594-.30469.69531-.57813 1.082-.8125.39062-.23828.79688-.43359 1.2227-.58984.42578-.15625.86328-.26563 1.3125-.33594.44922-.0703.89844-.0937 1.3516-.0742.41797.0273.82812.0977 1.2344.20703.40234.10938.79297.25391 1.1719.4375.375.18359.73047.40234 1.0664.65625.33203.25.64062.53516.92188.84766.27734.30859.52734.64453.74219 1.0039.21484.36328.39453.73828.53906 1.1328.14062.39453.24609.80078.3125 1.2148.0625.41406.08984.83203.07422 1.25"/><path d="m141.08 60.595c-.0937 3.5039-2.9766 6.5312-6.25 6.5312-.46875-.008-.9336-.0586-1.3945-.16015-.46093-.0977-.90625-.24219-1.3359-.42969-.42969-.1875-.83985-.41797-1.2266-.6875-.38281-.26953-.73828-.57813-1.0625-.91797-.32421-.33984-.61328-.71094-.86328-1.1094-.2539-.39844-.46093-.81641-.6289-1.2578-.16797-.4414-.29297-.89062-.3711-1.3555-.0742-.46484-.10547-.93359-.0898-1.4062.0195-.41406.082-.82421.18359-1.2266.10547-.40234.2461-.78906.42578-1.1641.17969-.375.39454-.73047.64454-1.0625s.52734-.63281.83984-.91016c.30859-.27734.64062-.51953 1-.73047.35937-.20703.73437-.3789 1.125-.51562.39453-.13672.79297-.23047 1.207-.28516.41016-.0547.82422-.0703 1.2344-.043 3.832.21094 6.6641 3.1016 6.5625 6.6914"/><path d="m66.513 133.52c.008.43359-.0273.86328-.10547 1.293-.0742.42578-.19531.83984-.35547 1.2461-.16015.40235-.35547.78907-.59375 1.1524-.23437.36328-.5039.69922-.80859 1.0117-.30469.30859-.63672.58593-.99219.83203-.35937.24218-.73828.44922-1.1406.61718-.39844.16797-.8125.29688-1.2383.38282-.42188.082-.85157.125-1.2852.125-.43359.008-.86719-.0312-1.293-.10938-.42578-.0781-.84375-.19922-1.2461-.35937-.40235-.16407-.78516-.35938-1.1523-.59766-.36328-.23828-.69922-.50781-1.0117-.80859-.3125-.30469-.58984-.63282-.83984-.99219-.24609-.35938-.45312-.73828-.62891-1.1367-.17188-.39844-.30469-.8125-.39453-1.2344-.09375-.42579-.14062-.85547-.14844-1.293-.09375-3.8398 2.2305-6.3867 5.9883-6.5312 4.0273-.17578 7.1562 2.5898 7.2461 6.4297"/><path d="m44.044 151.99c-2.6445-.35546-4.3984-1.8828-4.3477-4.5156.05078-2.6367 1.6133-4.4336 4.3477-4.4219 2.7305.0156 4.3438 1.7656 4.3438 4.4219s-1.5508 4.2734-4.3438 4.5156"/><path d="m14.568 123.42c-2.6289-.24609-4.1758-1.6836-4.1719-4.4414-.01953-.29297-.0078-.58594.03125-.875.04297-.29297.11328-.57422.21484-.85157.10156-.27734.23047-.53906.38672-.78906.15625-.24609.33594-.47656.54297-.6875.20703-.20703.42969-.39453.67578-.55859.24609-.16016.50391-.29297.77734-.40235.27344-.10547.55469-.18359.84375-.23047.28906-.0469.58203-.0625.875-.0469 2.6797-.0586 4.25 1.918 4.25 4.5s-1.4453 4.2969-4.4102 4.3555"/><path d="m148.03 115.24c2.4922.4961 4.4336 1.5977 4.4375 4.4805 0 2.7656-1.4453 4.4609-4.2578 4.4609-.27734.0156-.55078-.004-.82422-.0469-.27734-.043-.54297-.11329-.80078-.21094-.26172-.0977-.50781-.21875-.74219-.36719-.23437-.14844-.45312-.31641-.65234-.51172-.20312-.1914-.38281-.39844-.53906-.6289-.16016-.22657-.29297-.46875-.40235-.72657-.10937-.2539-.1914-.51562-.25-.78906-.0547-.27344-.082-.54687-.0859-.82422-.17969-2.6484 1.4492-4.2891 4.1172-4.8359"/><path d="m19.689 43.317c-.43359 2.4102-1.3828 4.5156-4.25 4.6172-2.8672.10156-4.4922-1.5742-4.4922-4.2461s1.6172-4.2539 4.3477-4.3555c2.7305-.10156 3.8594 1.5625 4.3906 3.9805"/><path d="m45.236 10.977c2.7617.27343 4.2969 1.957 4.3477 4.5586.01953.27734.01172.55078-.02734.82422-.03906.27734-.10547.54297-.19922.80469s-.21094.51172-.35938.74609c-.14453.23828-.3125.45313-.50391.65625-.19141.19922-.39844.37891-.62891.53906-.22656.15625-.46875.28907-.72266.39453-.25781.10547-.51953.1875-.79297.23829-.26953.0508-.54297.0742-.82031.0703-2.6094.0937-4.4688-1.2695-4.5273-4.1719-.05859-2.9062 1.6641-4.1445 4.2422-4.6602"/><path d="m120.79 10.657c2.5781.40625 4.2578 1.9531 4.207 4.6094-.043 2.4258-1.6094 4.2539-4.1055 4.2617-2.5.004-4.4141-1.4531-4.4922-4.3125s1.6875-4.1211 4.3906-4.5586"/><path d="m123.94 148.79c-.47657 2.6562-1.707 4.5391-4.5391 4.4375-2.832-.10156-4.3476-1.9023-4.2969-4.5078.0586-2.4024 1.6953-3.9844 4.2461-4.0938 2.8945-.125 4.0703 1.7188 4.5898 4.1641"/><path d="m148.72 49.641c-2.5703-.58203-4.2578-1.9688-4.1875-4.7188-.0117-.27735.004-.55078.0508-.82422.043-.27344.11718-.53906.21484-.79688.10156-.25781.22656-.5039.37891-.73437.15234-.23047.32812-.44531.52343-.63672.19532-.19531.41016-.37109.64063-.51953.23437-.14844.48047-.27344.73828-.37109.25781-.0977.52344-.16797.79687-.21094.26954-.043.54688-.0586.82032-.043 2.6172 0 4.4414 1.5391 4.4492 4.2969.008 2.7578-1.957 3.9766-4.4258 4.5352"/><path d="m155.81 7.1297c2.5273.21094 4.2031 1.5312 4.2656 4.0352.0664 2.6719-1.5274 4.3555-4.2656 4.4844-2.6055.125-4.1445-1.3281-4.1992-3.8906-.0664-2.7266 1.5625-4.1914 4.1992-4.6289"/><path d="m15.693 8.1258c.07812 3.0742-1.5 4.5273-3.9102 4.5937-.29297.0234-.58203.0156-.86719-.0234-.28906-.0391-.57031-.10938-.84375-.20703-.27344-.0977-.53516-.22266-.78516-.375-.24609-.15235-.47656-.33204-.68359-.53125-.21094-.20313-.39844-.42188-.5625-.66407-.16406-.24218-.30078-.49609-.41016-.76562s-.19141-.54688-.24219-.83594c-.05078-.28516-.07031-.57422-.0625-.86719-.07031-2.4102 1.2734-4.1133 3.9766-4.1289 2.7031-.01563 4.2031 1.5039 4.418 3.8242"/><path d="m14.642 153.56c-.55859 2.5625-1.7227 4.5859-4.543 4.4492-2.418-.11719-4.0898-1.5742-4.0469-4.1875.05078-2.7812 1.8672-4.3555 4.4375-4.3555 2.4375 0 3.8906 1.625 4.1523 4.0703"/><path d="m158.71 153.66c-.28516 2.4688-1.6172 3.9844-4.2109 3.875-2.7812-.11328-4.2656-1.957-4.1562-4.5352.0937-2.3594 1.6016-4.0664 4.2383-3.9336 2.7734.12891 4.043 1.8516 4.1289 4.5938"/><path d="m159.89 129.85c.23437-.0156.46875-.008.70312.0273.23438.0352.46094.0937.68359.17187.22266.082.42969.1875.63282.3125.19922.125.38281.26954.55468.4336.16797.16406.32032.34375.45313.53906s.24609.39844.33594.61719c.0898.21875.15625.44531.19922.67578.0469.23437.0625.46875.0586.70312.0273.23829.0273.47266 0 .71094-.0234.23438-.0742.46875-.14844.69141-.0742.22656-.16797.4414-.28906.64844-.11719.20703-.25781.39453-.41797.57031s-.33594.33203-.53125.47265c-.19141.13672-.39844.25391-.61328.34766-.21875.0937-.44531.16406-.67578.21094-.23438.0469-.46875.0703-.70703.0664-2.2461.1211-3.4609-1.4531-3.6211-3.4922-.1875-2.2266 1.3125-3.3242 3.3984-3.707"/><path d="m33.763 159.18c-.46094 2.0234-1.3242 3.6289-3.6211 3.6289-.23438.0156-.47266.004-.70703-.0352-.23438-.0352-.46094-.0937-.68359-.17969-.22266-.0859-.42969-.1914-.62891-.32031s-.38281-.28125-.55078-.44922-.31641-.35156-.44531-.55078c-.125-.19922-.23438-.41016-.31641-.63281-.08203-.22266-.14453-.45313-.17969-.6875-.03516-.23438-.04297-.46875-.03125-.70703-.04297-2.1797 1.5859-3.4922 3.625-3.5781 2.1719-.0898 3.207 1.5586 3.6211 3.5391"/><path d="m161.14 34.981c-2.6016-.21093-3.8906-1.5273-3.8047-3.6953-.008-.22266.008-.44141.043-.66016.0391-.21875.0977-.42968.17969-.63671.0781-.20704.17969-.40235.30078-.58594.125-.1836.26172-.35547.41797-.51172.16015-.15625.33203-.29297.51562-.41406.1875-.11719.38282-.21875.58985-.29688.20703-.0781.41797-.13672.63672-.17187.21875-.0312.4375-.043.65625-.0352 2.2812-.0508 3.6211 1.2656 3.7188 3.4062.0937 2.1406-1.4492 3.2812-3.2539 3.6289"/><path d="m137.89 4.4461c-.41406 2.2109-1.6016 3.4961-3.8828 3.2852-2-.17969-3.2656-1.4492-3.2383-3.4258.0352-2.1758 1.4492-3.4766 3.6211-3.4688s3.2461 1.5547 3.4688 3.6289"/><path d="m136.53 160.01c-.21875 2.1055-1.3242 3.5625-3.5508 3.5703-1.9844 0-3.207-1.2344-3.418-3.2422-.25391-2.3555 1.1289-3.668 3.2148-3.8477 2.2266-.1914 3.3477 1.3711 3.7539 3.5195"/><path d="m31.576 6.9422c-2.0273-.21094-3.5117-1.2656-3.5273-3.4922-.011718-2.2266 1.4492-3.4102 3.6211-3.4492 2.1758-.03516 3.2266 1.1484 3.2969 3.2031.08203 2.1758-.94141 3.5469-3.3672 3.7383"/><path d="m6.9427 131.83c-.10156 2.4727-1.0938 3.9258-3.418 3.832-2.1758-.0859-3.5742-1.3281-3.5234-3.5586.03906-1.9805 1.3203-3.1562 3.3047-3.3086 2.3242-.17969 3.4102 1.1094 3.6211 3.0352"/><path d="m7.7982 30.079c-.24609 2.1133-1.3398 3.2969-3.4648 3.1875-2.25-.11719-3.5781-1.4531-3.4609-3.6289 0-.22265.01953-.44531.06641-.66406.04297-.21875.10937-.42969.19922-.63281.08984-.20703.19922-.39844.32812-.57813.12891-.18359.27344-.34765.4375-.5.16406-.15234.34375-.28125.53516-.39843.19141-.11329.39453-.20313.60547-.27344.21094-.0742.42578-.1211.64844-.14844.21875-.0234.44141-.0273.66406-.004 2.2383.0625 3.3672 1.4844 3.4414 3.6719"/></g></svg>