<svg fill="none" height="113" viewBox="0 0 462 113" width="462" xmlns="http://www.w3.org/2000/svg"><path d="m43.9938 3.1981c-24.4606 0-32.7614 10.0412-36.69253 18.7771h122.73773c17.472 0 24.022-10.478 31.011-18.7771zm158.1162 0c-12.667 7.4255-25.334 14.8476-28.391 16.158-10.92 5.2416-21.838 6.552-28.827 6.552h-139.77471l-1.74888 4.803h72.50639l-26.2078 58.9673c-3.9311 9.1727 4.8099 19.6556 16.1666 19.6556h18.7771l34.9433-78.6229h32.325c9.609 0 17.033 0 28.827-4.368 4.368-1.7471 41.935-19.65063 49.361-23.145zm51.102.43505c-8.736 3.49436-59.838 23.58695-66.389 26.20775-5.679 2.1839-17.911 5.2381-27.957 5.2381h-12.225l-14.853 33.6383c-19.219 43.2427 24.894 41.0517 24.894 41.0517h51.11s44.987 2.188 57.654-29.2616l17.036-38.8765c4.368-9.6095 7.426-20.9661 2.184-28.3917-3.057-5.2415-10.046-9.60605-19.655-9.60605zm54.599 0-37.562 84.29635c-4.805 10.9199 3.933 21.8395 17.036 21.8395h63.336l12.233-27.5127h-40.625c-3.057-.4368-3.928-2.1857-3.054-3.9329l33.195-74.69025zm94.79 0-37.563 84.29635c-4.804 10.9199 3.925 21.8395 17.029 21.8395h63.335l12.234-27.5127h-40.626c-3.057-.4368-3.927-2.1856-3.054-3.9328l33.195-74.6903zm-201.361 27.07795h32.316c4.368 0 7.866 3.0592 5.682 8.3008-.437.8736-14.853 33.1947-14.853 33.1947-4.368 9.6094-14.409 9.6146-14.409 9.6146h-30.576s-9.179.4316-4.811-9.6146c0 0 15.293-34.9385 16.166-36.2489.874-2.184 4.37-5.2466 10.485-5.2466z" fill="#007f7b"/></svg>