<svg fill="none" height="172" viewBox="0 0 258 172" width="258" xmlns="http://www.w3.org/2000/svg"><path d="m129.501 159.274c1.309-.655 35.36-15.388 46.165-24.229 11.132-9.167 17.025-22.264 17.025-37.9793v-73.6676l-.982-.3274c-27.175-14.73355-60.899-13.75132-62.536-13.75132-1.309 0-35.0328-.98223-62.2079 13.75132l-.6549.3274v73.995c0 15.7159 5.8934 28.8119 17.0254 37.9799 10.8046 8.84 44.8554 23.573 46.1654 23.901" fill="#341b14"/><g clip-rule="evenodd" fill="#ffb406" fill-rule="evenodd"><path d="m82.3528 136.355c11.132 8.84 47.1472 24.556 47.1472 24.556s36.015-15.716 47.147-24.883c11.787-9.823 17.353-23.247 17.353-38.6349v-76.2867c-28.485-15.38834-64.5-14.07869-64.5-14.07869s-36.0152-1.30965-64.5 14.07869v76.6142c0 15.3884 5.566 28.8124 17.3528 38.6344zm3.2747-4.257c-10.1497-8.185-15.3883-19.972-15.3883-34.3778v-44.2005c35.3608-32.7411 80.5428-34.7056 118.5228-31.1041v75.3046c0 14.0788-5.238 26.1928-15.388 34.3778-8.84 7.203-36.343 19.645-43.873 22.919-7.531-3.274-34.706-15.388-43.8735-22.919z"/><path d="m173.046 95.4288c-.327-3.6015-2.292-5.566-7.203-8.5127-9.167-5.2386-11.132-9.8223-11.459-16.0431 0-9.1675 7.858-14.4061 15.388-14.7335 6.221-.3274 10.477 1.9645 12.442 3.6015v9.8224c-2.292-2.2919-6.221-4.5838-10.15-4.5838-2.947 0-6.548 1.6371-6.548 5.566 0 3.6047 2.756 5.2802 6.498 7.5551v.0001c.337.2045.681.414 1.032.6301 9.495 5.5659 11.46 10.8045 11.132 17.3527 0 7.2034-5.238 15.0614-16.37 15.0614-4.584 0-8.84-1.638-12.442-3.602v-10.4772c2.947 2.6193 7.203 4.5842 10.805 4.5842 4.256 0 6.875-2.2923 6.875-6.2212zm-40.599 15.7152c-2.62 0-4.257-.328-5.239-.655v23.901h-11.132v-73.9949c4.257-2.6193 9.168-3.9289 15.389-3.9289 13.423 0 20.954 10.1497 20.954 26.8477 0 16.3706-7.203 27.8301-19.972 27.8301zm-4.739-45.3543c.982-.3426 2.323-.8105 3.43-.8105 6.548 0 9.167 5.2386 9.167 18.0076 0 12.4417-3.274 18.3352-9.822 18.3352-1.637 0-2.947-.328-3.602-.655v-34.7055h.328c.151-.0506.319-.1089.498-.1715v-.0001zm-17.852 40.7703c-4.256 2.947-10.1499 4.584-17.0255 4.584-11.132 0-17.0254-6.221-17.0254-18.3349v-35.6878h11.4594v36.3426c0 2.9467.6548 7.8581 5.8934 7.8581 2.2918 0 3.9289-.328 5.2386-1.31v-42.8907h11.4595zm59.26 48.785v7.53h1.31v-2.946h.327l1.965 2.946h1.637s-1.965-2.946-2.292-3.274c.982-.327 1.637-.982 1.637-1.964 0-.983-.655-2.292-2.619-2.292zm3.274 1.965c0-.328-.327-.982-1.309-.982h-.655v2.291h.327c1.31 0 1.637-.654 1.637-1.309z"/><path d="m165.188 158.947c0-3.602 2.946-6.221 6.22-6.221 3.275 0 6.221 2.947 6.221 6.221 0 3.602-2.946 6.221-6.221 6.221-3.601 0-6.22-2.947-6.22-6.221zm6.221 4.91c2.619 0 4.911-2.292 4.911-4.911s-1.965-4.911-4.911-4.911c-2.62 0-4.912 2.292-4.912 4.911s2.292 4.911 4.912 4.911z"/></g></svg>